<svg xmlns="http://www.w3.org/2000/svg" viewBox="0 0 168 60">
  <defs>
    <linearGradient id="kobaya-hull" x1="0" y1="0" x2="0" y2="1">
      <stop offset="0" stop-color="#697c3f"/>
      <stop offset="1" stop-color="#425425"/>
    </linearGradient>
    <linearGradient id="kobaya-deck" x1="0" y1="0" x2="1" y2="0">
      <stop offset="0" stop-color="#c5b180"/>
      <stop offset="1" stop-color="#9a8154"/>
    </linearGradient>
  </defs>
  <path d="M20 30c0-7.4 12.8-19.4 32-25.6l28-8 28 8c19.2 6.2 32 18.2 32 25.6s-12.8 19.4-32 25.6l-28 8-28-8c-19.2-6.2-32-18.2-32-25.6z" fill="url(#kobaya-hull)" stroke="#222d16" stroke-width="3"/>
  <path d="M36 30c0-4.8 7.8-10.6 22-14l20-4 20 4c14.2 3.4 22 9.2 22 14s-7.8 10.6-22 14l-20 4-20-4c-14.2-3.4-22-9.2-22-14z" fill="url(#kobaya-deck)" stroke="#5d4a26" stroke-width="1.3"/>
  <g stroke="#5d4a26" stroke-width="1" opacity="0.5">
    <line x1="50" y1="18" x2="50" y2="42"/>
    <line x1="66" y1="16" x2="66" y2="44"/>
    <line x1="82" y1="16" x2="82" y2="44"/>
    <line x1="98" y1="16" x2="98" y2="44"/>
    <line x1="114" y1="18" x2="114" y2="42"/>
  </g>
  <!-- prow crest -->
  <path d="M136 30c7.2 1.8 12 5.2 14.4 10.2-4.8 4.4-9.4 5.2-15.4 3.4z" fill="#b0a13c" stroke="#4c4320" stroke-width="1.8"/>
  <circle cx="146" cy="36" r="3" fill="#2b3110"/>
  <!-- command hut -->
  <rect x="74" y="16" width="16" height="28" rx="5" fill="#2a333c" stroke="#101821" stroke-width="1.4"/>
  <!-- oars -->
  <g fill="#caa163" stroke="#5b381a" stroke-width="2">
    <path d="M48 16l-16 -12 4 -6 24 10z"/>
    <path d="M64 14l-16 -12 4 -6 24 10z"/>
    <path d="M100 14l16 -12-4 -6-24 10z"/>
    <path d="M116 16l16 -12-4 -6-24 10z"/>
    <path d="M48 42l-16 12 4 6 24-10z"/>
    <path d="M64 44l-16 12 4 6 24-10z"/>
    <path d="M100 44l16 12-4 6-24-10z"/>
    <path d="M116 42l16 12-4 6-24-10z"/>
  </g>

</svg>
