<svg xmlns="http://www.w3.org/2000/svg" viewBox="0 0 160 56">
  <defs>
    <linearGradient id="enemy-oared-hull" x1="0" y1="0" x2="0" y2="1">
      <stop offset="0" stop-color="#8f5f2d"/>
      <stop offset="1" stop-color="#4f2f15"/>
    </linearGradient>
    <linearGradient id="enemy-oared-deck" x1="0" y1="0" x2="1" y2="0">
      <stop offset="0" stop-color="#c9a374"/>
      <stop offset="1" stop-color="#9f744a"/>
    </linearGradient>
  </defs>
  <path d="M18 28c0-7.6 12-20 30-26l32-8 32 8c18 6 30 18.4 30 26s-12 20-30 26l-32 8-32-8c-18-6-30-18.4-30-26z" fill="url(#enemy-oared-hull)" stroke="#351d0f" stroke-width="3"/>
  <path d="M34 28c0-5 8-11.4 22-14.6l22-4.4 22 4.4c14 3.2 22 9.6 22 14.6s-8 11.4-22 14.6l-22 4.4-22-4.4c-14-3.2-22-9.6-22-14.6z" fill="url(#enemy-oared-deck)" stroke="#6f451f" stroke-width="1.4"/>
  <g stroke="#6f451f" stroke-width="1.2" opacity="0.6">
    <line x1="50" y1="16" x2="50" y2="40"/>
    <line x1="66" y1="14" x2="66" y2="42"/>
    <line x1="82" y1="14" x2="82" y2="42"/>
    <line x1="98" y1="14" x2="98" y2="42"/>
    <line x1="114" y1="16" x2="114" y2="40"/>
  </g>
  <!-- oars -->
  <g fill="#d0a05e" stroke="#5f3617" stroke-width="2">
    <path d="M52 18l-16 -12 4 -6 24 10z"/>
    <path d="M68 16l-16 -12 4 -6 24 10z"/>
    <path d="M96 16l16 -12-4 -6-24 10z"/>
    <path d="M112 18l16 -12-4 -6-24 10z"/>
    <path d="M52 40l-16 12 4 6 24-10z"/>
    <path d="M68 42l-16 12 4 6 24-10z"/>
    <path d="M96 42l16 12-4 6-24-10z"/>
    <path d="M112 40l16 12-4 6-24-10z"/>
  </g>

  <!-- prow ember -->
  <circle cx="136" cy="28" r="4" fill="#ce4d2c" stroke="#4f1f11" stroke-width="1.4"/>
</svg>
