<svg xmlns="http://www.w3.org/2000/svg" viewBox="0 0 160 56">
  <defs>
    <linearGradient id="enemy-long-hull" x1="0" y1="0" x2="0" y2="1">
      <stop offset="0" stop-color="#9c6a32"/>
      <stop offset="1" stop-color="#5c3516"/>
    </linearGradient>
    <linearGradient id="enemy-long-deck" x1="0" y1="0" x2="1" y2="0">
      <stop offset="0" stop-color="#cda97a"/>
      <stop offset="1" stop-color="#a0794d"/>
    </linearGradient>
  </defs>
  <path d="M16 28c0-8 12.8-21 32-28l32-8 32 8c19.2 7 32 20 32 28s-12.8 21-32 28l-32 8-32-8c-19.2-7-32-20-32-28z" fill="url(#enemy-long-hull)" stroke="#361d0e" stroke-width="3"/>
  <path d="M34 28c0-5.4 8.4-12.4 24-16l20-4 20 4c15.6 3.6 24 10.6 24 16s-8.4 12.4-24 16l-20 4-20-4c-15.6-3.6-24-10.6-24-16z" fill="url(#enemy-long-deck)" stroke="#74481f" stroke-width="1.4"/>
  <g stroke="#74481f" stroke-width="1.1" opacity="0.55">
    <line x1="50" y1="16" x2="50" y2="40"/>
    <line x1="66" y1="14" x2="66" y2="42"/>
    <line x1="82" y1="14" x2="82" y2="42"/>
    <line x1="98" y1="14" x2="98" y2="42"/>
    <line x1="114" y1="16" x2="114" y2="40"/>
  </g>
  <g fill="#d7462f" stroke="#4e1f12" stroke-width="1.2">
    <circle cx="44" cy="28" r="4"/>
    <circle cx="120" cy="28" r="4"/>
  </g>
  <!-- helm platform -->
  <rect x="74" y="10" width="16" height="36" rx="5" fill="#283643" stroke="#101922" stroke-width="1.6"/>
  <circle cx="82" cy="24" r="3.4" fill="#dbe4ed"/>
</svg>
