<svg xmlns="http://www.w3.org/2000/svg" viewBox="0 0 200 50">
  <defs>
    <linearGradient id="mhcHull" x1="0" y1="0" x2="0" y2="1">
      <stop offset="0" stop-color="#5a6d7f"/>
      <stop offset="1" stop-color="#252f3a"/>
    </linearGradient>
    <linearGradient id="mhcDeck" x1="0" y1="0" x2="1" y2="0">
      <stop offset="0" stop-color="#cec0a0"/>
      <stop offset="1" stop-color="#ad9873"/>
    </linearGradient>
  </defs>
  <path d="M22 25c0-7.2 13.6-18.2 32-23.4L100-10l44 11c18.4 5.2 32 16.2 32 23.4s-13.6 18.2-32 23.4L100 58.4 54 48.4C35.6 43.2 22 32.2 22 25z" fill="url(#mhcHull)" stroke="#171f26" stroke-width="3"/>
  <path d="M44 25c0-4.2 9-9 28-11.6l22-2 22 2c19 2.6 28 7.4 28 11.6s-9 9-28 11.6l-22 2-22-2c-19-2.6-28-7.4-28-11.6z" fill="url(#mhcDeck)"/>
  <g transform="translate(100 25)">
    <rect x="-26" y="-6" width="52" height="12" rx="4" fill="#38424c" stroke="#12181d" stroke-width="1.3"/>
    <rect x="-8" y="-11" width="16" height="8" rx="2.5" fill="#252f36" stroke="#0e1215" stroke-width="1"/>
  </g>
</svg>
