<svg xmlns="http://www.w3.org/2000/svg" viewBox="0 0 176 68">
  <defs>
    <linearGradient id="combat-hull" x1="0" y1="0" x2="0" y2="1">
      <stop offset="0" stop-color="#a56c31"/>
      <stop offset="1" stop-color="#623515"/>
    </linearGradient>
    <linearGradient id="combat-deck" x1="0" y1="0" x2="1" y2="0">
      <stop offset="0" stop-color="#d8b27c"/>
      <stop offset="1" stop-color="#ac804d"/>
    </linearGradient>
  </defs>
  <path d="M20 34c0-8.6 13.8-22.2 34-28.6l34-8.4 34 8.4c20.2 6.4 34 20 34 28.6s-13.8 22.2-34 28.6l-34 8.4-34-8.4c-20.2-6.4-34-20-34-28.6z" fill="url(#combat-hull)" stroke="#381f0f" stroke-width="3"/>
  <path d="M38 34c0-5.8 8.8-12.8 26-16.4l24-4.6 24 4.6c17.2 3.6 26 10.6 26 16.4s-8.8 12.8-26 16.4l-24 4.6-24-4.6c-17.2-3.6-26-10.6-26-16.4z" fill="url(#combat-deck)" stroke="#72441d" stroke-width="1.4"/>
  <g stroke="#72441d" stroke-width="1.1" opacity="0.55">
    <line x1="52" y1="18" x2="52" y2="50"/>
    <line x1="68" y1="16" x2="68" y2="52"/>
    <line x1="84" y1="16" x2="84" y2="52"/>
    <line x1="100" y1="16" x2="100" y2="52"/>
    <line x1="116" y1="18" x2="116" y2="50"/>
  </g>
  <!-- center platform -->
  <rect x="82" y="16" width="12" height="36" rx="5" fill="#26343f" stroke="#101922" stroke-width="1.6"/>
  <circle cx="88" cy="24" r="3.5" fill="#d9e4ed"/>
  <!-- oars -->
  <g fill="#d2a261" stroke="#633a19" stroke-width="2.2">
    <path d="M48 20l-18 -12 4 -6 26 10z"/>
    <path d="M64 18l-18 -12 4 -6 26 10z"/>
    <path d="M112 18l18 -12-4 -6-26 10z"/>
    <path d="M128 20l18 -12-4 -6-26 10z"/>
    <path d="M48 48l-18 12 4 6 26-10z"/>
    <path d="M64 50l-18 12 4 6 26-10z"/>
    <path d="M112 50l18 12-4 6-26-10z"/>
    <path d="M128 48l18 12-4 6-26-10z"/>
  </g>

  <!-- side shields -->
  <g fill="#ba4035" stroke="#3a1514" stroke-width="1.3">
    <circle cx="54" cy="34" r="4.2"/>
    <circle cx="122" cy="34" r="4.2"/>
  </g>
</svg>
