<svg xmlns="http://www.w3.org/2000/svg" viewBox="0 0 160 72">
  <defs>
    <linearGradient id="ferry-hull" x1="0" y1="0" x2="0" y2="1">
      <stop offset="0" stop-color="#b37a42"/>
      <stop offset="1" stop-color="#704321"/>
    </linearGradient>
    <linearGradient id="ferry-deck" x1="0" y1="0" x2="1" y2="0">
      <stop offset="0" stop-color="#d8b47a"/>
      <stop offset="1" stop-color="#b68d54"/>
    </linearGradient>
    <linearGradient id="ferry-canopy" x1="0" y1="0" x2="0.9" y2="0.9">
      <stop offset="0" stop-color="#f2f0e7"/>
      <stop offset="1" stop-color="#c5c2b1"/>
    </linearGradient>
  </defs>
  <!-- curved hull -->
  <path d="M16 36c0-9.2 14.2-23.8 36-30l28-6h4l28 6c21.8 6.2 36 20.8 36 30s-14.2 23.8-36 30l-28 6h-4l-28-6c-21.8-6.2-36-20.8-36-30z" fill="url(#ferry-hull)" stroke="#3d2313" stroke-width="3"/>
  <!-- deck planking -->
  <path d="M34 36c0-6.6 9.6-14.8 30-18.2l2-0.2 2 0.2c20.4 3.4 30 11.6 30 18.2s-9.6 14.8-30 18.2l-2 0.2-2-0.2c-20.4-3.4-30-11.6-30-18.2z" fill="url(#ferry-deck)" stroke="#8a5b2e" stroke-width="1.5"/>
  <g stroke="#8a5b2e" stroke-width="1.2" opacity="0.55">
    <line x1="48" y1="20" x2="48" y2="52"/>
    <line x1="64" y1="18" x2="64" y2="54"/>
    <line x1="80" y1="18" x2="80" y2="54"/>
    <line x1="96" y1="18" x2="96" y2="54"/>
    <line x1="112" y1="20" x2="112" y2="52"/>
  </g>
  <!-- passenger canopy -->
  <g>
    <rect x="54" y="20" width="52" height="28" rx="10" fill="#b54739" stroke="#4e1f1c" stroke-width="2"/>
    <rect x="58" y="18" width="44" height="16" rx="8" fill="url(#ferry-canopy)" stroke="#78746b" stroke-width="1.5"/>
    <g fill="#e3efe9" stroke="#5c6358" stroke-width="1">
      <rect x="62" y="36" width="8" height="10" rx="2"/>
      <rect x="74" y="36" width="8" height="10" rx="2"/>
      <rect x="86" y="36" width="8" height="10" rx="2"/>
      <rect x="98" y="36" width="8" height="10" rx="2"/>
    </g>
  </g>
  <!-- dragon-head prow ornament -->
  <path d="M132 32c6 1.6 10 4.6 12 9.4-4.2 4-8.6 5-14.4 3.4l2.4-12.8z" fill="#d2ab3c" stroke="#624214" stroke-width="2"/>
  <circle cx="141" cy="38" r="2" fill="#3b2a17"/>
  <!-- flag mast -->
  <g>
    <rect x="80" y="10" width="4" height="18" rx="1.5" fill="#6f4a28"/>
    <path d="M84 12l14 6-14 6z" fill="#cfb04a" stroke="#6f4a28" stroke-width="1.2"/>
  </g>
</svg>
