<svg xmlns="http://www.w3.org/2000/svg" viewBox="0 0 204 64">
  <defs>
    <linearGradient id="grandHull" x1="0" y1="0" x2="0" y2="1">
      <stop offset="0" stop-color="#b67a3f"/>
      <stop offset="1" stop-color="#6a3d1b"/>
    </linearGradient>
    <linearGradient id="grandDeck" x1="0" y1="0" x2="1" y2="0">
      <stop offset="0" stop-color="#dcbc84"/>
      <stop offset="1" stop-color="#af834f"/>
    </linearGradient>
    <linearGradient id="grandTower" x1="0" y1="0" x2="0" y2="1">
      <stop offset="0" stop-color="#657280"/>
      <stop offset="1" stop-color="#37424e"/>
    </linearGradient>
    <linearGradient id="grandBronze" x1="0" y1="0" x2="1" y2="1">
      <stop offset="0" stop-color="#dcb150"/>
      <stop offset="1" stop-color="#8f5c21"/>
    </linearGradient>
  </defs>
  <path d="M18 32c0-9 14.6-23.2 36-30.4l48-13.6 48 13.6c21.4 7.2 36 21.4 36 30.4s-14.6 23.2-36 30.4l-48 13.6-48-13.6C32.6 55.2 18 41 18 32z" fill="url(#grandHull)" stroke="#2c190c" stroke-width="3"/>
  <path d="M44 32c0-6.2 9.8-13.4 30-17l26-3.6 26 3.6c20.2 3.6 30 10.8 30 17s-9.8 13.4-30 17l-26 3.6-26-3.6c-20.2-3.6-30-10.8-30-17z" fill="url(#grandDeck)"/>
  <g transform="translate(102 32)">
    <rect x="-32" y="-14" width="64" height="32" rx="14" fill="url(#grandTower)" stroke="#1f272f" stroke-width="2.2"/>
    <rect x="-24" y="-20" width="48" height="12" rx="6" fill="#8f9dab" stroke="#1f272f" stroke-width="2"/>
    <rect x="-20" y="18" width="40" height="10" rx="5" fill="#2f3742" stroke="#0f151a" stroke-width="1.6"/>
    <g fill="#d9e2ec" stroke="#1a232b" stroke-width="1.4">
      <rect x="-12" y="-4" width="8" height="14" rx="3"/>
      <rect x="4" y="-4" width="8" height="14" rx="3"/>
    </g>
  </g>
  <g>
    <circle cx="154" cy="32" r="9.5" fill="url(#grandBronze)" stroke="#5c3918" stroke-width="1.8"/>
    <circle cx="136" cy="22" r="7.4" fill="url(#grandBronze)" stroke="#5c3918" stroke-width="1.6"/>
    <circle cx="136" cy="42" r="7.4" fill="url(#grandBronze)" stroke="#5c3918" stroke-width="1.6"/>
    <path d="M162 32h22" stroke="#5c3918" stroke-width="3.2" stroke-linecap="round"/>
  </g>
  <g fill="#be3f35" stroke="#411414" stroke-width="1.3">
    <circle cx="68" cy="32" r="4.6"/>
    <circle cx="132" cy="32" r="4.6"/>
  </g>
</svg>
