<svg xmlns="http://www.w3.org/2000/svg" viewBox="0 0 176 72">
  <defs>
    <linearGradient id="goryeo-row-hull" x1="0" y1="0" x2="0" y2="1">
      <stop offset="0" stop-color="#a86d35"/>
      <stop offset="1" stop-color="#653917"/>
    </linearGradient>
    <linearGradient id="goryeo-row-deck" x1="0" y1="0" x2="1" y2="0">
      <stop offset="0" stop-color="#d8b07d"/>
      <stop offset="1" stop-color="#ac7f4b"/>
    </linearGradient>
  </defs>
  <path d="M22 36c0-9 15-24.2 38-31.6l30-8.4 30 8.4c23 7.4 38 22.6 38 31.6s-15 24.2-38 31.6l-30 8.4-30-8.4C37 60.2 22 45 22 36z" fill="url(#goryeo-row-hull)" stroke="#3c2211" stroke-width="3"/>
  <path d="M40 36c0-6 9.2-13.2 30-17l18-2.8 18 2.8c20.8 3.8 30 11 30 17s-9.2 13.2-30 17l-18 2.8-18-2.8c-20.8-3.8-30-11-30-17z" fill="url(#goryeo-row-deck)" stroke="#79481f" stroke-width="1.4"/>
  <g stroke="#79481f" stroke-width="1.1" opacity="0.5">
    <line x1="54" y1="20" x2="54" y2="52"/>
    <line x1="70" y1="18" x2="70" y2="54"/>
    <line x1="86" y1="18" x2="86" y2="54"/>
    <line x1="102" y1="18" x2="102" y2="54"/>
    <line x1="118" y1="20" x2="118" y2="52"/>
  </g>
  <!-- rowing benches and commander deck -->
  <rect x="82" y="18" width="12" height="36" rx="5" fill="#273441" stroke="#101821" stroke-width="1.6"/>
  <circle cx="88" cy="26" r="3.6" fill="#dbe4ec"/>
  <!-- oars -->
  <g fill="#d3a060" stroke="#6a3d19" stroke-width="2.2">
    <path d="M46 22l-18 -12 4 -6 26 10z"/>
    <path d="M62 20l-18 -12 4 -6 26 10z"/>
    <path d="M114 20l18 -12-4 -6-26 10z"/>
    <path d="M130 22l18 -12-4 -6-26 10z"/>
    <path d="M46 50l-18 12 4 6 26-10z"/>
    <path d="M62 52l-18 12 4 6 26-10z"/>
    <path d="M114 52l18 12-4 6-26-10z"/>
    <path d="M130 50l18 12-4 6-26-10z"/>
  </g>
  <!-- side shields -->
  <g fill="#bb4035" stroke="#431514" stroke-width="1.3">
    <circle cx="58" cy="36" r="4.6"/>
    <circle cx="118" cy="36" r="4.6"/>
  </g>
</svg>
