<svg xmlns="http://www.w3.org/2000/svg" viewBox="0 0 200 52">
  <defs>
    <linearGradient id="kddxHull" x1="0" y1="0" x2="0" y2="1">
      <stop offset="0" stop-color="#647789"/>
      <stop offset="1" stop-color="#2a3643"/>
    </linearGradient>
    <linearGradient id="kddxDeck" x1="0" y1="0" x2="1" y2="0">
      <stop offset="0" stop-color="#d5c6a6"/>
      <stop offset="1" stop-color="#b29f79"/>
    </linearGradient>
  </defs>
  <path d="M20 26c0-7.6 14-19.6 34-24.8L100-10l48 11c20 5.2 34 17.2 34 24.8s-14 19.6-34 24.8L100 66.8 54 50.8C34 45.6 20 33.6 20 26z" fill="url(#kddxHull)" stroke="#1a2129" stroke-width="3"/>
  <path d="M44 26c0-4.4 9.6-9.2 30-11.8l26-2.2 26 2.2c20.4 2.6 30 7.4 30 11.8s-9.6 9.2-30 11.8l-26 2.2-26-2.2c-20.4-2.6-30-7.4-30-11.8z" fill="url(#kddxDeck)"/>
  <g transform="translate(100 26)">
    <rect x="-28" y="-8" width="56" height="14" rx="5" fill="#3d4956" stroke="#111820" stroke-width="1.4"/>
    <rect x="-14" y="-14" width="28" height="10" rx="3" fill="#252f38" stroke="#0d1114" stroke-width="1.1"/>
  </g>
</svg>
