<svg xmlns="http://www.w3.org/2000/svg" viewBox="0 0 196 60">
  <defs>
    <linearGradient id="cannonEarlyHull" x1="0" y1="0" x2="0" y2="1">
      <stop offset="0" stop-color="#a16d36"/>
      <stop offset="1" stop-color="#5a3217"/>
    </linearGradient>
    <linearGradient id="cannonEarlyDeck" x1="0" y1="0" x2="1" y2="0">
      <stop offset="0" stop-color="#d2ae77"/>
      <stop offset="1" stop-color="#a87a49"/>
    </linearGradient>
    <linearGradient id="cannonBronze" x1="0" y1="0" x2="1" y2="1">
      <stop offset="0" stop-color="#d8a64a"/>
      <stop offset="1" stop-color="#8d5c1f"/>
    </linearGradient>
  </defs>
  <path d="M20 30c0-8.6 14-22.6 36-29l40-11.4 40 11.4c22 6.4 36 20.4 36 29s-14 22.6-36 29l-40 11.4-40-11.4C34 52.6 20 38.6 20 30z" fill="url(#cannonEarlyHull)" stroke="#2a180c" stroke-width="3"/>
  <path d="M42 30c0-5.8 9.6-12.8 30-16.6l22-3.4 22 3.4c20.4 3.8 30 10.8 30 16.6s-9.6 12.8-30 16.6l-22 3.4-22-3.4c-20.4-3.8-30-10.8-30-16.6z" fill="url(#cannonEarlyDeck)"/>
  <g transform="translate(98 30)">
    <rect x="-28" y="-10" width="56" height="24" rx="10" fill="#40505d" stroke="#182028" stroke-width="2"/>
    <rect x="-20" y="-16" width="40" height="10" rx="5" fill="#697683" stroke="#182028" stroke-width="1.6"/>
  </g>
  <g>
    <circle cx="146" cy="30" r="8" fill="url(#cannonBronze)" stroke="#5c3918" stroke-width="1.6"/>
    <path d="M154 30h20" stroke="#5c3918" stroke-width="3.2" stroke-linecap="round"/>
  </g>
  <g fill="#be3f35" stroke="#411414" stroke-width="1.3">
    <circle cx="66" cy="30" r="4.4"/>
    <circle cx="130" cy="30" r="4.4"/>
  </g>
</svg>
