<svg xmlns="http://www.w3.org/2000/svg" viewBox="0 0 228 74">
  <defs>
    <linearGradient id="panokGreatHull" x1="0" y1="0" x2="0" y2="1">
      <stop offset="0" stop-color="#c78d4b"/>
      <stop offset="1" stop-color="#7a481f"/>
    </linearGradient>
    <linearGradient id="panokGreatDeck" x1="0" y1="0" x2="1" y2="0">
      <stop offset="0" stop-color="#f2d9a6"/>
      <stop offset="1" stop-color="#cea36d"/>
    </linearGradient>
  </defs>
  <path d="M18 37c0-9.8 15.6-25.4 40-33.6L110-10l52 12c24.4 8.2 40 24 40 33.6s-15.6 25.4-40 33.6l-52 12-52-12C33.6 62.4 18 46.8 18 37z" fill="url(#panokGreatHull)" stroke="#331c0f" stroke-width="3"/>
  <path d="M46 37c0-6.6 10.4-14.8 34-18.8l24-3.6 24 3.6c23.6 4 34 12.2 34 18.8s-10.4 14.8-34 18.8l-24 3.6-24-3.6c-23.6-4-34-12.2-34-18.8z" fill="url(#panokGreatDeck)"/>
  <g transform="translate(114 37)">
    <rect x="-40" y="-12" width="80" height="32" rx="14" fill="#d4b078" stroke="#6d471f" stroke-width="2.2"/>
    <rect x="-26" y="-20" width="52" height="14" rx="7" fill="#906437" stroke="#3d2412" stroke-width="1.6"/>
    <rect x="-24" y="18" width="48" height="12" rx="6" fill="#2f3842" stroke="#0f151a" stroke-width="1.6"/>
  </g>
  <g fill="#be3f35" stroke="#411414" stroke-width="1.4">
    <circle cx="74" cy="37" r="5.2"/>
    <circle cx="154" cy="37" r="5.2"/>
  </g>
  <rect x="90" y="10" width="4" height="24" rx="1.6" fill="#6f4524"/>
  <rect x="138" y="8" width="4" height="26" rx="1.6" fill="#6f4524"/>
  <path d="M94 14l24 8-24 8z" fill="#134f9c" stroke="#18335c" stroke-width="1.4"/>
  <path d="M142 12l-26 8 26 8z" fill="#c03038" stroke="#5b2021" stroke-width="1.4"/>
</svg>
