<svg xmlns="http://www.w3.org/2000/svg" viewBox="0 0 188 58">
  <defs>
    <linearGradient id="combatHull" x1="0" y1="0" x2="0" y2="1">
      <stop offset="0" stop-color="#9b6835"/>
      <stop offset="1" stop-color="#542f16"/>
    </linearGradient>
    <linearGradient id="combatDeck" x1="0" y1="0" x2="1" y2="0">
      <stop offset="0" stop-color="#cfac76"/>
      <stop offset="1" stop-color="#a87c4c"/>
    </linearGradient>
  </defs>
  <path d="M20 29c0-8.2 13.6-21.6 34-28l40-11.6 40 11.6c20.4 6.4 34 19.8 34 28s-13.6 21.6-34 28l-40 11.6-40-11.6C33.6 50.6 20 37.2 20 29z" fill="url(#combatHull)" stroke="#2a170c" stroke-width="3"/>
  <path d="M40 29c0-5.6 9.4-12.4 30-16.2l24-3.8 24 3.8c20.6 3.8 30 10.6 30 16.2s-9.4 12.4-30 16.2l-24 3.8-24-3.8c-20.6-3.8-30-10.6-30-16.2z" fill="url(#combatDeck)"/>
  <rect x="82" y="16" width="24" height="26" rx="8" fill="#31404c" stroke="#0f151a" stroke-width="1.6"/>
  <g fill="#c04432" stroke="#401816" stroke-width="1.4">
    <circle cx="62" cy="29" r="4.6"/>
    <circle cx="94" cy="29" r="4.6"/>
    <circle cx="126" cy="29" r="4.6"/>
  </g>
</svg>
