<svg xmlns="http://www.w3.org/2000/svg" viewBox="0 0 188 60">
  <defs>
    <linearGradient id="ramHull" x1="0" y1="0" x2="0" y2="1">
      <stop offset="0" stop-color="#ae7337"/>
      <stop offset="1" stop-color="#653316"/>
    </linearGradient>
    <linearGradient id="ramDeck" x1="0" y1="0" x2="1" y2="0">
      <stop offset="0" stop-color="#d8b07d"/>
      <stop offset="1" stop-color="#ad7f4f"/>
    </linearGradient>
    <linearGradient id="ramHead" x1="0" y1="0" x2="1" y2="1">
      <stop offset="0" stop-color="#d89f43"/>
      <stop offset="1" stop-color="#8d5d21"/>
    </linearGradient>
  </defs>
  <path d="M18 30c0-8.6 13.8-22.4 34-28.8L96-10l44 11.2c20.2 6.4 34 20.2 34 28.8s-13.8 22.4-34 28.8L96 70.8l-44-11.2C31.8 52.4 18 38.6 18 30z" fill="url(#ramHull)" stroke="#2b170c" stroke-width="3"/>
  <path d="M42 30c0-5.8 9.6-12.8 30-16.8l24-3.6 24 3.6c20.4 4 30 11 30 16.8s-9.6 12.8-30 16.8l-24 3.6-24-3.6c-20.4-4-30-11-30-16.8z" fill="url(#ramDeck)"/>
  <path d="M150 30l22 6-22 6-12-4z" fill="url(#ramHead)" stroke="#5c3516" stroke-width="1.6"/>
  <g fill="#be3f35" stroke="#411414" stroke-width="1.3">
    <circle cx="62" cy="30" r="4.6"/>
    <circle cx="94" cy="30" r="4.6"/>
    <circle cx="126" cy="30" r="4.6"/>
  </g>
</svg>
