<svg xmlns="http://www.w3.org/2000/svg" viewBox="0 0 220 70">
  <defs>
    <linearGradient id="turtleHull" x1="0" y1="0" x2="0" y2="1">
      <stop offset="0" stop-color="#5c3a22"/>
      <stop offset="1" stop-color="#2f1a0e"/>
    </linearGradient>
    <linearGradient id="turtleShell" x1="0" y1="0" x2="1" y2="0">
      <stop offset="0" stop-color="#435661"/>
      <stop offset="1" stop-color="#22323a"/>
    </linearGradient>
    <linearGradient id="turtleSpine" x1="0" y1="0" x2="0" y2="1">
      <stop offset="0" stop-color="#54636f"/>
      <stop offset="1" stop-color="#2b3944"/>
    </linearGradient>
  </defs>
  <path d="M18 35c0-9.8 16.2-26.4 42-34.8L110-10l50 11.2c25.8 8.4 42 25 42 34.8s-16.2 26.4-42 34.8l-50 11.2-50-11.2C34.2 61.4 18 44.8 18 35z" fill="url(#turtleHull)" stroke="#1a0f08" stroke-width="3"/>
  <path d="M42 35c0-7.4 10.6-16.6 36-21.6l18-3 18 3c25.4 5 36 14.2 36 21.6s-10.6 16.6-36 21.6l-18 3-18-3c-25.4-5-36-14.2-36-21.6z" fill="url(#turtleShell)"/>
  <g stroke="#11191f" stroke-width="1.6" opacity="0.75">
    <line x1="58" y1="24" x2="152" y2="46"/>
    <line x1="58" y1="46" x2="152" y2="24"/>
    <line x1="78" y1="18" x2="78" y2="52"/>
    <line x1="102" y1="16" x2="102" y2="54"/>
    <line x1="126" y1="18" x2="126" y2="52"/>
  </g>
  <g fill="#cfd8e2" stroke="#1f2931" stroke-width="1.4">
    <circle cx="70" cy="28" r="3.6"/>
    <circle cx="86" cy="24" r="3.6"/>
    <circle cx="102" cy="22" r="3.6"/>
    <circle cx="118" cy="24" r="3.6"/>
    <circle cx="134" cy="28" r="3.6"/>
    <circle cx="70" cy="42" r="3.6"/>
    <circle cx="86" cy="46" r="3.6"/>
    <circle cx="102" cy="48" r="3.6"/>
    <circle cx="118" cy="46" r="3.6"/>
    <circle cx="134" cy="42" r="3.6"/>
  </g>
  <path d="M168 35c11 2.6 18 7.6 21 14.6-6.8 5.6-14 6.6-22.6 3.8z" fill="#c48c39" stroke="#4f2f16" stroke-width="2"/>
  <circle cx="180" cy="37" r="3.2" fill="#20130a"/>
</svg>
