<svg xmlns="http://www.w3.org/2000/svg" viewBox="0 0 200 58">
  <defs>
    <linearGradient id="traderHull" x1="0" y1="0" x2="0" y2="1">
      <stop offset="0" stop-color="#5f7286"/>
      <stop offset="1" stop-color="#2b3743"/>
    </linearGradient>
    <linearGradient id="traderDeck" x1="0" y1="0" x2="1" y2="0">
      <stop offset="0" stop-color="#d7c6a3"/>
      <stop offset="1" stop-color="#b6a27c"/>
    </linearGradient>
  </defs>
  <path d="M22 29c0-8.2 13.8-21 34-26.8L100-10l44 10.8c20.2 5.8 34 18.6 34 26.8s-13.8 21-34 26.8L100 64.4 56 55.8C35.8 50 22 37.2 22 29z" fill="url(#traderHull)" stroke="#1b242c" stroke-width="3"/>
  <path d="M46 29c0-5 9.6-11 30-14.2l22-2.6 22 2.6c20.4 3.2 30 9.2 30 14.2s-9.6 11-30 14.2l-22 2.6-22-2.6c-20.4-3.2-30-9.2-30-14.2z" fill="url(#traderDeck)"/>
  <g transform="translate(100 29)">
    <rect x="-28" y="-10" width="56" height="20" rx="8" fill="#3b4956" stroke="#131a1f" stroke-width="1.6"/>
    <rect x="-18" y="-16" width="36" height="12" rx="6" fill="#8d7042" stroke="#3d2713" stroke-width="1.4"/>
  </g>
</svg>
