<svg xmlns="http://www.w3.org/2000/svg" viewBox="0 0 180 74">
  <defs>
    <linearGradient id="seonjang-hull" x1="0" y1="0" x2="0" y2="1">
      <stop offset="0" stop-color="#b57a3f"/>
      <stop offset="1" stop-color="#71431c"/>
    </linearGradient>
    <linearGradient id="seonjang-deck" x1="0" y1="0" x2="1" y2="0">
      <stop offset="0" stop-color="#e5c491"/>
      <stop offset="1" stop-color="#c2945f"/>
    </linearGradient>
  </defs>
  <path d="M18 37c0-9.4 15-25 38-32.2l34-9.8 34 9.8c23 7.2 38 22.8 38 32.2s-15 25-38 32.2l-34 9.8-34-9.8C33 62 18 46.4 18 37z" fill="url(#seonjang-hull)" stroke="#3a2211" stroke-width="3"/>
  <path d="M40 37c0-6.6 9.8-14.6 31-18.4l18-3 18 3c21.2 3.8 31 11.8 31 18.4s-9.8 14.6-31 18.4l-18 3-18-3c-21.2-3.8-31-11.8-31-18.4z" fill="url(#seonjang-deck)" stroke="#825126" stroke-width="1.5"/>
  <g stroke="#825126" stroke-width="1.1" opacity="0.55">
    <line x1="54" y1="18" x2="54" y2="56"/>
    <line x1="70" y1="16" x2="70" y2="58"/>
    <line x1="86" y1="16" x2="86" y2="58"/>
    <line x1="102" y1="16" x2="102" y2="58"/>
    <line x1="118" y1="18" x2="118" y2="56"/>
  </g>
  <!-- command cabin -->
  <rect x="60" y="24" width="60" height="26" rx="12" fill="#cba779" stroke="#6b4623" stroke-width="1.6"/>
  <g fill="#eadfc7" stroke="#6c5942" stroke-width="1">
    <rect x="68" y="28" width="12" height="14" rx="4"/>
    <rect x="100" y="28" width="12" height="14" rx="4"/>
  </g>
  <rect x="86" y="18" width="8" height="36" rx="3" fill="#273441" stroke="#101821" stroke-width="1.6"/>
  <circle cx="90" cy="26" r="3.6" fill="#dbe4ef"/>
  <!-- oars -->
  <g fill="#d4a161" stroke="#6a3d18" stroke-width="2.1">
    <path d="M50 22l-18 -12 4 -6 26 12z"/>
    <path d="M66 20l-18 -12 4 -6 26 12z"/>
    <path d="M116 20l18 -12-4 -6-26 12z"/>
    <path d="M132 22l18 -12-4 -6-26 12z"/>
    <path d="M50 50l-18 12 4 6 26-12z"/>
    <path d="M66 52l-18 12 4 6 26-12z"/>
    <path d="M116 52l18 12-4 6-26-12z"/>
    <path d="M132 50l18 12-4 6-26-12z"/>
  </g>
  <!-- heraldic shields -->
  <g fill="#be3f35" stroke="#431414" stroke-width="1.3">
    <circle cx="56" cy="37" r="4.8"/>
    <circle cx="124" cy="37" r="4.8"/>
  </g>
</svg>
