<svg xmlns="http://www.w3.org/2000/svg" viewBox="0 0 196 88">
  <defs>
    <linearGradient id="goryeo-armored-hull" x1="0" y1="0" x2="0" y2="1">
      <stop offset="0" stop-color="#b98241"/>
      <stop offset="1" stop-color="#74441d"/>
    </linearGradient>
    <linearGradient id="goryeo-armored-deck" x1="0" y1="0" x2="1" y2="0">
      <stop offset="0" stop-color="#e9c996"/>
      <stop offset="1" stop-color="#c1975f"/>
    </linearGradient>
    <linearGradient id="goryeo-armored-plating" x1="0" y1="0" x2="0" y2="1">
      <stop offset="0" stop-color="#6e7984"/>
      <stop offset="1" stop-color="#404b56"/>
    </linearGradient>
    <linearGradient id="goryeo-armored-bronze" x1="0" y1="0" x2="1" y2="1">
      <stop offset="0" stop-color="#d7aa50"/>
      <stop offset="1" stop-color="#8f5c1e"/>
    </linearGradient>
  </defs>
  <path d="M22 44c0-11 17.4-29.2 45-37.8l32-9.2 32 9.2c27.6 8.6 45 26.8 45 37.8s-17.4 29.2-45 37.8l-32 9.2-32-9.2C39.4 73.2 22 55 22 44z" fill="url(#goryeo-armored-hull)" stroke="#3d2211" stroke-width="3"/>
  <path d="M48 44c0-7.8 12.2-17.6 39-22.8l10-1.8 10 1.8c26.8 5.2 39 15 39 22.8s-12.2 17.6-39 22.8l-10 1.8-10-1.8c-26.8-5.2-39-15-39-22.8z" fill="url(#goryeo-armored-deck)" stroke="#945d2a" stroke-width="1.6"/>
  <g stroke="#945d2a" stroke-width="1.2" opacity="0.55">
    <line x1="64" y1="22" x2="64" y2="66"/>
    <line x1="82" y1="20" x2="82" y2="68"/>
    <line x1="100" y1="20" x2="100" y2="68"/>
    <line x1="118" y1="20" x2="118" y2="68"/>
    <line x1="136" y1="22" x2="136" y2="66"/>
  </g>
  <g>
    <rect x="72" y="18" width="56" height="44" rx="16" fill="url(#goryeo-armored-plating)" stroke="#1f272f" stroke-width="2.4"/>
    <g fill="#ccd5de" stroke="#1b242c" stroke-width="1.5">
      <rect x="80" y="26" width="12" height="16" rx="4"/>
      <rect x="104" y="26" width="12" height="16" rx="4"/>
    </g>
    <rect x="84" y="46" width="32" height="12" rx="5" fill="#303a45" stroke="#10161c" stroke-width="1.6"/>
  </g>
  <g>
    <circle cx="152" cy="44" r="12" fill="url(#goryeo-armored-bronze)" stroke="#5c3918" stroke-width="2"/>
    <path d="M164 44h24" stroke="#5c3918" stroke-width="4" stroke-linecap="round"/>
  </g>
  <g fill="#6a4625" stroke="#3b2514" stroke-width="1.6" opacity="0.7">
    <rect x="48" y="32" width="8" height="22" rx="4"/>
    <rect x="58" y="30" width="8" height="24" rx="4"/>
    <rect x="130" y="30" width="8" height="24" rx="4" transform="scale(-1 1) translate(-268 0)"/>
    <rect x="140" y="32" width="8" height="22" rx="4" transform="scale(-1 1) translate(-288 0)"/>
  </g>
</svg>
