<svg xmlns="http://www.w3.org/2000/svg" viewBox="0 0 200 56">
  <defs>
    <linearGradient id="unyangHull" x1="0" y1="0" x2="0" y2="1">
      <stop offset="0" stop-color="#60748d"/>
      <stop offset="1" stop-color="#2e3b49"/>
    </linearGradient>
    <linearGradient id="unyangDeck" x1="0" y1="0" x2="1" y2="0">
      <stop offset="0" stop-color="#d3c4a2"/>
      <stop offset="1" stop-color="#b49f78"/>
    </linearGradient>
  </defs>
  <path d="M20 28c0-8 14-20.8 34-26.4L100-10l46 11.6c20 5.6 34 18.4 34 26.4s-14 20.8-34 26.4L100 66.4 54 54.4C34 48.8 20 36 20 28z" fill="url(#unyangHull)" stroke="#1b232a" stroke-width="3"/>
  <path d="M44 28c0-4.8 9.6-10.4 30-13.6l24-2.6 24 2.6c20.4 3.2 30 8.8 30 13.6s-9.6 10.4-30 13.6l-24 2.6-24-2.6c-20.4-3.2-30-8.8-30-13.6z" fill="url(#unyangDeck)"/>
  <g transform="translate(100 28)">
    <rect x="-30" y="-8" width="60" height="16" rx="6" fill="#3b4956" stroke="#12191f" stroke-width="1.6"/>
    <rect x="-14" y="-14" width="28" height="10" rx="3" fill="#2f3842" stroke="#0f1418" stroke-width="1.2"/>
  </g>
</svg>
