<svg xmlns="http://www.w3.org/2000/svg" viewBox="0 0 204 62">
  <defs>
    <linearGradient id="cannon2Hull" x1="0" y1="0" x2="0" y2="1">
      <stop offset="0" stop-color="#a97336"/>
      <stop offset="1" stop-color="#5a3318"/>
    </linearGradient>
    <linearGradient id="cannon2Deck" x1="0" y1="0" x2="1" y2="0">
      <stop offset="0" stop-color="#d6b37c"/>
      <stop offset="1" stop-color="#ad804e"/>
    </linearGradient>
    <linearGradient id="cannon2Bronze" x1="0" y1="0" x2="1" y2="1">
      <stop offset="0" stop-color="#ddb04f"/>
      <stop offset="1" stop-color="#8f5c21"/>
    </linearGradient>
  </defs>
  <path d="M18 31c0-8.8 14.4-23 36-29.8L102-10l48 11.2c21.6 6.8 36 21 36 29.8s-14.4 23-36 29.8L102 72.2 54 60C32.4 54.2 18 39.8 18 31z" fill="url(#cannon2Hull)" stroke="#2d190c" stroke-width="3"/>
  <path d="M44 31c0-5.8 9.8-12.6 30-16.6l24-3.6 24 3.6c20.2 4 30 10.8 30 16.6s-9.8 12.6-30 16.6l-24 3.6-24-3.6c-20.2-4-30-10.8-30-16.6z" fill="url(#cannon2Deck)"/>
  <g transform="translate(106 31)">
    <rect x="-30" y="-12" width="60" height="30" rx="12" fill="#485563" stroke="#1f272f" stroke-width="2"/>
    <rect x="-24" y="-18" width="48" height="12" rx="6" fill="#718090" stroke="#1f272f" stroke-width="1.8"/>
    <rect x="-18" y="18" width="36" height="10" rx="5" fill="#2f3842" stroke="#0f151a" stroke-width="1.6"/>
  </g>
  <g>
    <circle cx="152" cy="31" r="9" fill="url(#cannon2Bronze)" stroke="#5c3918" stroke-width="1.8"/>
    <circle cx="136" cy="23" r="7" fill="url(#cannon2Bronze)" stroke="#5c3918" stroke-width="1.6"/>
    <circle cx="136" cy="39" r="7" fill="url(#cannon2Bronze)" stroke="#5c3918" stroke-width="1.6"/>
    <path d="M160 31h20" stroke="#5c3918" stroke-width="3.2" stroke-linecap="round"/>
  </g>
  <g fill="#be3f35" stroke="#411414" stroke-width="1.3">
    <circle cx="66" cy="31" r="4.6"/>
    <circle cx="130" cy="31" r="4.6"/>
  </g>
</svg>
