<svg xmlns="http://www.w3.org/2000/svg" viewBox="0 0 220 68">
  <defs>
    <linearGradient id="panokHull" x1="0" y1="0" x2="0" y2="1">
      <stop offset="0" stop-color="#c18648"/>
      <stop offset="1" stop-color="#73431f"/>
    </linearGradient>
    <linearGradient id="panokDeck" x1="0" y1="0" x2="1" y2="0">
      <stop offset="0" stop-color="#f1d7a5"/>
      <stop offset="1" stop-color="#cda26c"/>
    </linearGradient>
  </defs>
  <path d="M18 34c0-9.4 15.2-24.4 38-32l48-12.8 48 12.8c22.8 7.6 38 22.6 38 32s-15.2 24.4-38 32l-48 12.8-48-12.8C33.2 58.4 18 43.4 18 34z" fill="url(#panokHull)" stroke="#321c0f" stroke-width="3"/>
  <path d="M44 34c0-6.2 10.2-13.8 34-17.6l22-3.4 22 3.4c23.8 3.8 34 11.4 34 17.6s-10.2 13.8-34 17.6l-22 3.4-22-3.4c-23.8-3.8-34-11.4-34-17.6z" fill="url(#panokDeck)"/>
  <g transform="translate(110 34)">
    <rect x="-36" y="-12" width="72" height="30" rx="12" fill="#d2af78" stroke="#6d471f" stroke-width="2"/>
    <rect x="-24" y="-18" width="48" height="12" rx="6" fill="#916437" stroke="#3e2512" stroke-width="1.6"/>
    <rect x="-22" y="16" width="44" height="12" rx="6" fill="#2f3842" stroke="#0f151a" stroke-width="1.6"/>
  </g>
  <g fill="#be3f35" stroke="#411414" stroke-width="1.3">
    <circle cx="70" cy="34" r="4.8"/>
    <circle cx="150" cy="34" r="4.8"/>
  </g>
  <rect x="86" y="10" width="4" height="22" rx="1.6" fill="#6f4524"/>
  <rect x="134" y="8" width="4" height="24" rx="1.6" fill="#6f4524"/>
  <path d="M90 12l22 7-22 7z" fill="#114d9a" stroke="#17325a" stroke-width="1.4"/>
  <path d="M138 10l-24 8 24 8z" fill="#be2f38" stroke="#5a2020" stroke-width="1.4"/>
</svg>
