<svg xmlns="http://www.w3.org/2000/svg" viewBox="0 0 200 52">
  <defs>
    <linearGradient id="stealthHull" x1="0" y1="0" x2="0" y2="1">
      <stop offset="0" stop-color="#4f5f72"/>
      <stop offset="1" stop-color="#1f2832"/>
    </linearGradient>
    <linearGradient id="stealthDeck" x1="0" y1="0" x2="1" y2="0">
      <stop offset="0" stop-color="#c8baa0"/>
      <stop offset="1" stop-color="#a59171"/>
    </linearGradient>
  </defs>
  <path d="M20 26c0-7.4 13.6-19.2 32-24.4L100-10l48 10.8c18.4 5.2 32 17 32 24.4s-13.6 19.2-32 24.4L100 67.2 52 50.4C33.6 45.2 20 33.4 20 26z" fill="url(#stealthHull)" stroke="#161d24" stroke-width="3"/>
  <path d="M44 26c0-4.2 8.6-8.8 26-11.4l28-2.4 28 2.4c17.4 2.6 26 7.2 26 11.4s-8.6 8.8-26 11.4l-28 2.4-28-2.4c-17.4-2.6-26-7.2-26-11.4z" fill="url(#stealthDeck)"/>
  <g transform="translate(100 26)">
    <rect x="-26" y="-6" width="52" height="12" rx="4" fill="#343f49" stroke="#10161b" stroke-width="1.2"/>
    <rect x="-12" y="-12" width="24" height="9" rx="2.5" fill="#232b33" stroke="#0b1013" stroke-width="1"/>
  </g>
</svg>
