<svg xmlns="http://www.w3.org/2000/svg" viewBox="0 0 200 60">
  <defs>
    <linearGradient id="lstHull" x1="0" y1="0" x2="0" y2="1">
      <stop offset="0" stop-color="#596c7d"/>
      <stop offset="1" stop-color="#252f39"/>
    </linearGradient>
    <linearGradient id="lstDeck" x1="0" y1="0" x2="1" y2="0">
      <stop offset="0" stop-color="#d1c2a0"/>
      <stop offset="1" stop-color="#af9a75"/>
    </linearGradient>
  </defs>
  <path d="M22 30c0-7.8 13.8-20.2 34-26L100-10l44 11c20.2 5.8 34 18.2 34 26s-13.8 20.2-34 26l-44 11-44-11C35.8 50.2 22 37.8 22 30z" fill="url(#lstHull)" stroke="#182028" stroke-width="3"/>
  <path d="M46 30c0-5 9.2-10.8 28-14l26-2.6 26 2.6c18.8 3.2 28 9 28 14s-9.2 10.8-28 14l-26 2.6-26-2.6c-18.8-3.2-28-9-28-14z" fill="url(#lstDeck)"/>
  <g transform="translate(100 30)">
    <rect x="-32" y="-8" width="64" height="16" rx="6" fill="#3a4652" stroke="#11181e" stroke-width="1.4"/>
    <path d="M32 0h14" stroke="#11181e" stroke-width="2.4" stroke-linecap="round"/>
  </g>
</svg>
