<svg xmlns="http://www.w3.org/2000/svg" viewBox="0 0 150 52">
  <defs>
    <linearGradient id="uny-hull" x1="0" x2="0" y1="0" y2="1">
      <stop offset="0" stop-color="#31465e"/>
      <stop offset="1" stop-color="#172331"/>
    </linearGradient>
    <linearGradient id="uny-deck" x1="0" x2="1" y1="0" y2="0">
      <stop offset="0" stop-color="#5e748c"/>
      <stop offset="1" stop-color="#43576f"/>
    </linearGradient>
  </defs>
  <path d="M16 26c0-7.4 11.8-20.6 30-26L75 0l29 0c18.2 5.4 30 18.6 30 26s-11.8 20.6-30 26l-29 0-29 0c-18.2-5.4-30-18.6-30-26z" fill="url(#uny-hull)" stroke="#0c141d" stroke-width="2"/>
  <path d="M38 26c0-5.2 8.2-12.2 32-14.8l2-0.2 2 0.2c23.8 2.6 32 9.6 32 14.8s-8.2 12.2-32 14.8l-2 0.2-2-0.2c-23.8-2.6-32-9.6-32-14.8z" fill="url(#uny-deck)"/>
  <rect x="58" y="10" width="10" height="28" rx="4" fill="#2a394b"/>
  <rect x="72" y="8" width="22" height="32" rx="6" fill="#233445"/>
  <rect x="100" y="10" width="10" height="28" rx="4" fill="#2a394b"/>
  <circle cx="48" cy="20" r="3" fill="#d8e4f1"/>
  <circle cx="48" cy="32" r="3" fill="#d8e4f1"/>
  <circle cx="122" cy="20" r="3" fill="#d8e4f1"/>
  <circle cx="122" cy="32" r="3" fill="#d8e4f1"/>
</svg>
