<svg xmlns="http://www.w3.org/2000/svg" viewBox="0 0 200 48">
  <defs>
    <linearGradient id="fastHull" x1="0" y1="0" x2="0" y2="1">
      <stop offset="0" stop-color="#5a6c7e"/>
      <stop offset="1" stop-color="#28323d"/>
    </linearGradient>
    <linearGradient id="fastDeck" x1="0" y1="0" x2="1" y2="0">
      <stop offset="0" stop-color="#cfc0a0"/>
      <stop offset="1" stop-color="#ad9873"/>
    </linearGradient>
  </defs>
  <path d="M20 24c0-7 13.6-18 32-23.2L100-10l48 10.8c18.4 5.2 32 16.2 32 23.2s-13.6 18-32 23.2L100 66.8 52 47.2C33.6 42 20 31 20 24z" fill="url(#fastHull)" stroke="#182028" stroke-width="3"/>
  <path d="M44 24c0-4.2 8.8-8.8 28-11.4l24-2.2 24 2.2c19.2 2.6 28 7.2 28 11.4s-8.8 8.8-28 11.4l-24 2.2-24-2.2c-19.2-2.6-28-7.2-28-11.4z" fill="url(#fastDeck)"/>
  <g transform="translate(100 24)">
    <rect x="-26" y="-6" width="52" height="12" rx="4" fill="#38434f" stroke="#11181d" stroke-width="1.3"/>
    <rect x="-8" y="-11" width="16" height="8" rx="2.5" fill="#252e35" stroke="#0d1114" stroke-width="1"/>
  </g>
</svg>
