<svg xmlns="http://www.w3.org/2000/svg" viewBox="0 0 188 60">
  <defs>
    <linearGradient id="towerHull" x1="0" y1="0" x2="0" y2="1">
      <stop offset="0" stop-color="#a7713a"/>
      <stop offset="1" stop-color="#623516"/>
    </linearGradient>
    <linearGradient id="towerDeck" x1="0" y1="0" x2="1" y2="0">
      <stop offset="0" stop-color="#dabb88"/>
      <stop offset="1" stop-color="#b28554"/>
    </linearGradient>
  </defs>
  <path d="M20 30c0-8.6 13.8-22.6 34-29l40-11.4 40 11.4c20.2 6.4 34 20.4 34 29s-13.8 22.6-34 29l-40 11.4-40-11.4C33.8 52.6 20 38.6 20 30z" fill="url(#towerHull)" stroke="#2a160c" stroke-width="3"/>
  <path d="M40 30c0-6 9.4-13 30-16.8l24-3.8 24 3.8c20.6 3.8 30 10.8 30 16.8s-9.4 13-30 16.8l-24 3.8-24-3.8c-20.6-3.8-30-10.8-30-16.8z" fill="url(#towerDeck)"/>
  <g transform="translate(96 28)">
    <rect x="-24" y="-12" width="48" height="32" rx="12" fill="#677381" stroke="#1f272f" stroke-width="2.2"/>
    <rect x="-18" y="-18" width="36" height="12" rx="6" fill="#919cab" stroke="#1f272f" stroke-width="2"/>
    <rect x="-16" y="16" width="32" height="12" rx="6" fill="#313b45" stroke="#0f151a" stroke-width="1.6"/>
    <g fill="#d7e0eb" stroke="#1a232b" stroke-width="1.4">
      <rect x="-10" y="-2" width="8" height="14" rx="3"/>
      <rect x="2" y="-2" width="8" height="14" rx="3"/>
    </g>
  </g>
  <g fill="#be3f35" stroke="#411415" stroke-width="1.3">
    <circle cx="60" cy="30" r="4.4"/>
    <circle cx="132" cy="30" r="4.4"/>
  </g>
</svg>
