<svg xmlns="http://www.w3.org/2000/svg" viewBox="0 0 196 60">
  <defs>
    <linearGradient id="hyupHull" x1="0" y1="0" x2="0" y2="1">
      <stop offset="0" stop-color="#9a6a36"/>
      <stop offset="1" stop-color="#54311a"/>
    </linearGradient>
    <linearGradient id="hyupDeck" x1="0" y1="0" x2="1" y2="0">
      <stop offset="0" stop-color="#d5b27d"/>
      <stop offset="1" stop-color="#ab8251"/>
    </linearGradient>
  </defs>
  <path d="M20 30c0-8.6 14-22.6 36-29L96-10l44 11c22 6.4 36 20.4 36 29s-14 22.6-36 29L96 70 56 59C34 52.6 20 38.6 20 30z" fill="url(#hyupHull)" stroke="#2a190c" stroke-width="3"/>
  <path d="M40 30c0-5.8 9.6-12.8 30-16.6l22-3.4 22 3.4c20.4 3.8 30 10.8 30 16.6s-9.6 12.8-30 16.6l-22 3.4-22-3.4c-20.4-3.8-30-10.8-30-16.6z" fill="url(#hyupDeck)"/>
  <g transform="translate(96 30)">
    <rect x="-28" y="-12" width="56" height="26" rx="11" fill="#cfa978" stroke="#6d471f" stroke-width="2"/>
    <g fill="#f4ead2" stroke="#8b7858" stroke-width="1.4">
      <rect x="-16" y="-6" width="12" height="14" rx="3"/>
      <rect x="4" y="-6" width="12" height="14" rx="3"/>
    </g>
  </g>
</svg>
