<svg xmlns="http://www.w3.org/2000/svg" viewBox="0 0 208 64">
  <defs>
    <linearGradient id="panokEarlyHull" x1="0" y1="0" x2="0" y2="1">
      <stop offset="0" stop-color="#be8042"/>
      <stop offset="1" stop-color="#6f401e"/>
    </linearGradient>
    <linearGradient id="panokEarlyDeck" x1="0" y1="0" x2="1" y2="0">
      <stop offset="0" stop-color="#efd39e"/>
      <stop offset="1" stop-color="#cb9f69"/>
    </linearGradient>
  </defs>
  <path d="M20 32c0-9 14.6-23.4 36-30.8L104-10l48 11.2c21.4 7.4 36 21.8 36 30.8s-14.6 23.4-36 30.8L104 74 56 62.8C34.6 55.4 20 41 20 32z" fill="url(#panokEarlyHull)" stroke="#2f1a0d" stroke-width="3"/>
  <path d="M44 32c0-6 9.8-13.2 32-17l22-3.4 22 3.4c22.2 3.8 32 11 32 17s-9.8 13.2-32 17l-22 3.4-22-3.4c-22.2-3.8-32-11-32-17z" fill="url(#panokEarlyDeck)"/>
  <g transform="translate(104 32)">
    <rect x="-34" y="-12" width="68" height="30" rx="12" fill="#caa772" stroke="#6d471f" stroke-width="2"/>
    <rect x="-20" y="-18" width="40" height="12" rx="6" fill="#8a6232" stroke="#3d2413" stroke-width="1.6"/>
    <rect x="-18" y="16" width="36" height="12" rx="6" fill="#2d3742" stroke="#0f151a" stroke-width="1.6"/>
  </g>
  <g fill="#be3f35" stroke="#411414" stroke-width="1.3">
    <circle cx="66" cy="32" r="4.8"/>
    <circle cx="142" cy="32" r="4.8"/>
  </g>
</svg>
