<svg xmlns="http://www.w3.org/2000/svg" viewBox="0 0 180 72">
  <defs>
    <linearGradient id="ram-hull" x1="0" y1="0" x2="0" y2="1">
      <stop offset="0" stop-color="#ab6a2f"/>
      <stop offset="1" stop-color="#6a3a18"/>
    </linearGradient>
    <linearGradient id="ram-deck" x1="0" y1="0" x2="1" y2="0">
      <stop offset="0" stop-color="#dfbb89"/>
      <stop offset="1" stop-color="#b88e5a"/>
    </linearGradient>
    <linearGradient id="ram-bronze" x1="0" y1="0" x2="1" y2="1">
      <stop offset="0" stop-color="#dba648"/>
      <stop offset="1" stop-color="#915d1c"/>
    </linearGradient>
  </defs>
  <path d="M18 36c0-9 15-24 38-31.2L88 0l32 4.8C143 12 160 27 160 36s-17 24-40 31.2L88 72l-32-4.8C33 60 18 45 18 36z" fill="url(#ram-hull)" stroke="#3b2010" stroke-width="3"/>
  <path d="M40 36c0-6.4 10.4-14.4 32-18.2l16-2.6 16 2.6c21.6 3.8 32 11.8 32 18.2s-10.4 14.4-32 18.2l-16 2.6-16-2.6C50.4 50.4 40 42.4 40 36z" fill="url(#ram-deck)" stroke="#845125" stroke-width="1.6"/>
  <g stroke="#845125" stroke-width="1.2" opacity="0.5">
    <line x1="56" y1="18" x2="56" y2="54"/>
    <line x1="72" y1="16" x2="72" y2="56"/>
    <line x1="88" y1="16" x2="88" y2="56"/>
    <line x1="104" y1="16" x2="104" y2="56"/>
    <line x1="120" y1="18" x2="120" y2="54"/>
  </g>
  <!-- bronze ram -->
  <path d="M148 36l18 6-18 6-10-3.2z" fill="url(#ram-bronze)" stroke="#5c3516" stroke-width="2"/>
  <circle cx="158" cy="42" r="3" fill="#351d0f"/>
  <!-- central shield row -->
  <g fill="#d3a061" stroke="#6a3d19" stroke-width="2.2">
    <path d="M52 22l-18 -12 4 -6 26 10z"/>
    <path d="M68 20l-18 -12 4 -6 26 10z"/>
    <path d="M108 20l18 -12-4 -6-26 10z"/>
    <path d="M124 22l18 -12-4 -6-26 10z"/>
    <path d="M52 48l-18 12 4 6 26-10z"/>
    <path d="M68 50l-18 12 4 6 26-10z"/>
    <path d="M108 50l18 12-4 6-26-10z"/>
    <path d="M124 48l18 12-4 6-26-10z"/>
  </g>

  <!-- oars -->
  <g fill="#d3a061" stroke="#6a3d19" stroke-width="2.2">
    <path d="M52 48l-18 12 4 6 26-10z"/>
    <path d="M68 50l-18 12 4 6 26-10z"/>
    <path d="M108 50l18 12-4 6-26-10z"/>
    <path d="M124 48l18 12-4 6-26-10z"/>
  </g>
  <!-- stern banner -->
  <rect x="88" y="8" width="4" height="18" rx="1.5" fill="#6f4324"/>
  <path d="M92 10l-18 6 18 6z" fill="#be2f38" stroke="#5a2020" stroke-width="1.2"/>
</svg>
