<svg xmlns="http://www.w3.org/2000/svg" viewBox="0 0 196 60">
  <defs>
    <linearGradient id="goryeoFireHull" x1="0" y1="0" x2="0" y2="1">
      <stop offset="0" stop-color="#ac7034"/>
      <stop offset="1" stop-color="#5d3418"/>
    </linearGradient>
    <linearGradient id="goryeoFireDeck" x1="0" y1="0" x2="1" y2="0">
      <stop offset="0" stop-color="#d9b47f"/>
      <stop offset="1" stop-color="#af8554"/>
    </linearGradient>
    <radialGradient id="goryeoFireBlaze" cx="0.7" cy="0.32" r="0.7">
      <stop offset="0" stop-color="#ffe6a5"/>
      <stop offset="0.38" stop-color="#ffae46"/>
      <stop offset="1" stop-color="#d14919"/>
    </radialGradient>
  </defs>
  <path d="M18 30c0-8.6 14.4-22.4 36-28.8l42-10.4 42 10.4c21.6 6.4 36 20.2 36 28.8s-14.4 22.4-36 28.8l-42 10.4-42-10.4C32.4 52.4 18 38.6 18 30z" fill="url(#goryeoFireHull)" stroke="#2a160c" stroke-width="3"/>
  <path d="M42 30c0-5.8 9.8-12.6 30-16.4l24-3.6 24 3.6c20.2 3.8 30 10.6 30 16.4s-9.8 12.6-30 16.4l-24 3.6-24-3.6c-20.2-3.8-30-10.6-30-16.4z" fill="url(#goryeoFireDeck)"/>
  <g>
    <circle cx="148" cy="30" r="11" fill="url(#goryeoFireBlaze)"/>
    <circle cx="132" cy="22" r="6" fill="url(#goryeoFireBlaze)" opacity="0.8"/>
    <circle cx="132" cy="38" r="6" fill="url(#goryeoFireBlaze)" opacity="0.8"/>
  </g>
  <circle cx="148" cy="30" r="3.2" fill="#31130a"/>
  <g fill="#be3f35" stroke="#411414" stroke-width="1.3">
    <circle cx="62" cy="30" r="4.6"/>
    <circle cx="110" cy="30" r="4.6"/>
  </g>
</svg>
