<svg xmlns="http://www.w3.org/2000/svg" viewBox="0 0 188 60">
  <defs>
    <linearGradient id="fire3KHull" x1="0" y1="0" x2="0" y2="1">
      <stop offset="0" stop-color="#b06e34"/>
      <stop offset="1" stop-color="#623519"/>
    </linearGradient>
    <linearGradient id="fire3KDeck" x1="0" y1="0" x2="1" y2="0">
      <stop offset="0" stop-color="#deb680"/>
      <stop offset="1" stop-color="#ba8952"/>
    </linearGradient>
    <radialGradient id="fire3KBlaze" cx="0.72" cy="0.35" r="0.7">
      <stop offset="0" stop-color="#ffe7a5"/>
      <stop offset="0.4" stop-color="#ffb24a"/>
      <stop offset="1" stop-color="#d24b1a"/>
    </radialGradient>
  </defs>
  <path d="M20 30c0-8.6 13.8-22.4 34-28.8l38-10.4 38 10.4c20.2 6.4 34 20.2 34 28.8s-13.8 22.4-34 28.8l-38 10.4-38-10.4C33.8 52.4 20 38.6 20 30z" fill="url(#fire3KHull)" stroke="#2a160c" stroke-width="3"/>
  <path d="M40 30c0-5.8 9.4-12.6 30-16.4l22-3.6 22 3.6c20.6 3.8 30 10.6 30 16.4s-9.4 12.6-30 16.4l-22 3.6-22-3.6c-20.6-3.8-30-10.6-30-16.4z" fill="url(#fire3KDeck)"/>
  <g>
    <circle cx="142" cy="30" r="12" fill="url(#fire3KBlaze)"/>
    <circle cx="124" cy="22" r="6" fill="url(#fire3KBlaze)" opacity="0.8"/>
    <circle cx="124" cy="38" r="6" fill="url(#fire3KBlaze)" opacity="0.8"/>
  </g>
  <circle cx="142" cy="30" r="3.2" fill="#31130a"/>
</svg>
