<svg xmlns="http://www.w3.org/2000/svg" viewBox="0 0 180 60">
  <defs>
    <linearGradient id="sailHull" x1="0" y1="0" x2="0" y2="1">
      <stop offset="0" stop-color="#a77439"/>
      <stop offset="1" stop-color="#64381c"/>
    </linearGradient>
    <linearGradient id="sailDeck" x1="0" y1="0" x2="1" y2="0">
      <stop offset="0" stop-color="#daba88"/>
      <stop offset="1" stop-color="#b38855"/>
    </linearGradient>
    <linearGradient id="sailCloth" x1="0" y1="0" x2="0.8" y2="1">
      <stop offset="0" stop-color="#f5f0de"/>
      <stop offset="1" stop-color="#cbc3af"/>
    </linearGradient>
  </defs>
  <path d="M20 30c0-8.8 13.8-23 34-29.2l32-8.8 32 8.8c20.2 6.2 34 20.4 34 29.2s-13.8 23-34 29.2l-32 8.8-32-8.8C33.8 53 20 38.8 20 30z" fill="url(#sailHull)" stroke="#2f1d10" stroke-width="3"/>
  <path d="M40 30c0-5.8 9.4-12.8 30-16.6l18-3.2 18 3.2c20.6 3.8 30 10.8 30 16.6s-9.4 12.8-30 16.6l-18 3.2-18-3.2c-20.6-3.8-30-10.8-30-16.6z" fill="url(#sailDeck)"/>
  <g transform="translate(90 16)">
    <rect x="-6" y="-6" width="12" height="40" rx="3" fill="#6f4a28" stroke="#3a2414" stroke-width="1.4"/>
    <path d="M0 -4l46 14-46 14z" fill="url(#sailCloth)" stroke="#b7ad94" stroke-width="1.6"/>
    <path d="M0 10l32 22-32 0z" fill="#d7c4a0" stroke="#9e8459" stroke-width="1.2" opacity="0.85"/>
  </g>
  <g stroke="#55361b" stroke-width="1.4" opacity="0.35">
    <line x1="38" y1="30" x2="142" y2="30"/>
    <line x1="50" y1="18" x2="128" y2="42"/>
    <line x1="50" y1="42" x2="128" y2="18"/>
  </g>
</svg>
