<svg xmlns="http://www.w3.org/2000/svg" viewBox="0 0 220 72">
  <defs>
    <linearGradient id="cvxHull" x1="0" y1="0" x2="0" y2="1">
      <stop offset="0" stop-color="#4f5f6f"/>
      <stop offset="1" stop-color="#242f38"/>
    </linearGradient>
    <linearGradient id="cvxDeck" x1="0" y1="0" x2="1" y2="0">
      <stop offset="0" stop-color="#9aa7b3"/>
      <stop offset="1" stop-color="#6f7d8a"/>
    </linearGradient>
  </defs>
  <path d="M18 36c0-9 16-24 42-31.8L110-10l50 11.6c26 7.8 42 22.8 42 31.8s-16 24-42 31.8L110 76.6 60 67.8C34 60 18 45 18 36z" fill="url(#cvxHull)" stroke="#141c23" stroke-width="3"/>
  <path d="M40 36c0-7.2 12-16.2 38-21.4l32-4.6 32 4.6c26 5.2 38 14.2 38 21.4s-12 16.2-38 21.4l-32 4.6-32-4.6c-26-5.2-38-14.2-38-21.4z" fill="url(#cvxDeck)"/>
  <g stroke="#cfd6de" stroke-width="2" opacity="0.6">
    <line x1="52" y1="36" x2="168" y2="36"/>
    <line x1="70" y1="24" x2="150" y2="48"/>
    <line x1="70" y1="48" x2="150" y2="24"/>
  </g>
  <rect x="132" y="20" width="18" height="16" rx="3" fill="#2e3944" stroke="#12181d" stroke-width="1.2"/>
</svg>
