<svg xmlns="http://www.w3.org/2000/svg" viewBox="0 0 188 58">
  <defs>
    <linearGradient id="ballistaHull" x1="0" y1="0" x2="0" y2="1">
      <stop offset="0" stop-color="#986534"/>
      <stop offset="1" stop-color="#553019"/>
    </linearGradient>
    <linearGradient id="ballistaDeck" x1="0" y1="0" x2="1" y2="0">
      <stop offset="0" stop-color="#cdac78"/>
      <stop offset="1" stop-color="#a97f51"/>
    </linearGradient>
  </defs>
  <path d="M18 29c0-8.4 13.6-21.6 34-28l39-11 39 11c20.4 6.4 34 19.6 34 28s-13.6 21.6-34 28l-39 11-39-11C31.6 50.6 18 37.4 18 29z" fill="url(#ballistaHull)" stroke="#2d180c" stroke-width="3"/>
  <path d="M40 29c0-5.8 9.6-12.6 30-16.4l22-3.6 22 3.6c20.4 3.8 30 10.6 30 16.4s-9.6 12.6-30 16.4l-22 3.6-22-3.6c-20.4-3.8-30-10.6-30-16.4z" fill="url(#ballistaDeck)"/>
  <g transform="translate(96 26)">
    <rect x="-26" y="-10" width="52" height="28" rx="12" fill="#d2b07a" stroke="#6d471f" stroke-width="2"/>
    <rect x="-20" y="-16" width="40" height="12" rx="6" fill="#885f32" stroke="#3d2713" stroke-width="1.6"/>
    <path d="M-26 -6l-26 -9 4 10 22 1z" fill="#9d6a34" stroke="#3c2412" stroke-width="1.6"/>
    <path d="M26 -6l26 -9-4 10-22 1z" fill="#9d6a34" stroke="#3c2412" stroke-width="1.6"/>
    <path d="M-10 4h20" stroke="#3c2412" stroke-width="3"/>
  </g>
  <g fill="#c04432" stroke="#401816" stroke-width="1.4">
    <circle cx="60" cy="29" r="4.4"/>
    <circle cx="132" cy="29" r="4.4"/>
  </g>
</svg>
