<svg xmlns="http://www.w3.org/2000/svg" viewBox="0 0 200 54">
  <defs>
    <linearGradient id="torpedoHull" x1="0" y1="0" x2="0" y2="1">
      <stop offset="0" stop-color="#4f6374"/>
      <stop offset="1" stop-color="#24313c"/>
    </linearGradient>
    <linearGradient id="torpedoDeck" x1="0" y1="0" x2="1" y2="0">
      <stop offset="0" stop-color="#d3c39e"/>
      <stop offset="1" stop-color="#b29d77"/>
    </linearGradient>
  </defs>
  <path d="M22 27c0-7.8 14-20.4 34-26L100-10l44 11c20 5.6 34 18.2 34 26s-14 20.4-34 26l-44 11-44-11C36 47.4 22 34.8 22 27z" fill="url(#torpedoHull)" stroke="#1b232a" stroke-width="3"/>
  <path d="M46 27c0-4.8 9.6-10.4 30-13l22-2.6 22 2.6c20.4 2.6 30 8.2 30 13s-9.6 10.4-30 13l-22 2.6-22-2.6c-20.4-2.6-30-8.2-30-13z" fill="url(#torpedoDeck)"/>
  <g transform="translate(98 27)">
    <rect x="-30" y="-8" width="60" height="16" rx="7" fill="#3a4956" stroke="#141a1f" stroke-width="1.6"/>
    <rect x="-6" y="-14" width="12" height="10" rx="3" fill="#2a343e" stroke="#0f1418" stroke-width="1.3"/>
  </g>
</svg>
