<svg xmlns="http://www.w3.org/2000/svg" viewBox="0 0 180 56">
  <defs>
    <linearGradient id="raftHull" x1="0" y1="0" x2="0" y2="1">
      <stop offset="0" stop-color="#a87b45"/>
      <stop offset="1" stop-color="#6a4425"/>
    </linearGradient>
    <linearGradient id="raftDeck" x1="0" y1="0" x2="1" y2="0">
      <stop offset="0" stop-color="#d7b482"/>
      <stop offset="1" stop-color="#b38758"/>
    </linearGradient>
    <linearGradient id="raftStrap" x1="0" y1="0" x2="1" y2="0">
      <stop offset="0" stop-color="#3a2a1d"/>
      <stop offset="1" stop-color="#221710"/>
    </linearGradient>
  </defs>
  <path d="M18 28c0-8.6 13.8-22.4 34-28l38-10 38 10c20.2 5.6 34 19.4 34 28s-13.8 22.4-34 28l-38 10-38-10c-20.2-5.6-34-19.4-34-28z" fill="url(#raftHull)" stroke="#2f1d10" stroke-width="3"/>
  <path d="M40 28c0-6 9.6-13.4 30-17.2l20-3.6 20 3.6c20.4 3.8 30 11.2 30 17.2s-9.6 13.4-30 17.2l-20 3.6-20-3.6c-20.4-3.8-30-11.2-30-17.2z" fill="url(#raftDeck)"/>
  <g stroke="#5d3c1f" stroke-width="1.4" opacity="0.55">
    <line x1="52" y1="12" x2="52" y2="44"/>
    <line x1="66" y1="10" x2="66" y2="46"/>
    <line x1="80" y1="8" x2="80" y2="48"/>
    <line x1="94" y1="8" x2="94" y2="48"/>
    <line x1="108" y1="10" x2="108" y2="46"/>
    <line x1="122" y1="12" x2="122" y2="44"/>
  </g>
  <g fill="url(#raftStrap)">
    <rect x="48" y="10" width="8" height="36" rx="3"/>
    <rect x="86" y="6" width="8" height="44" rx="3" opacity="0.7"/>
    <rect x="126" y="10" width="8" height="36" rx="3"/>
  </g>
  <g transform="translate(100 26)">
    <rect x="-16" y="-10" width="32" height="24" rx="6" fill="#6c4b2a" stroke="#2f1d10" stroke-width="1.6"/>
    <path d="M-12 0h24" stroke="#22140b" stroke-width="3"/>
    <path d="M0 -10v24" stroke="#22140b" stroke-width="3"/>
  </g>
</svg>
