<svg xmlns="http://www.w3.org/2000/svg" viewBox="0 0 220 102">
  <defs>
    <linearGradient id="panok-great-hull" x1="0" y1="0" x2="0" y2="1">
      <stop offset="0" stop-color="#c68a4b"/>
      <stop offset="1" stop-color="#7e4a1f"/>
    </linearGradient>
    <linearGradient id="panok-great-deck" x1="0" y1="0" x2="1" y2="0">
      <stop offset="0" stop-color="#f1d7a5"/>
      <stop offset="1" stop-color="#cea46d"/>
    </linearGradient>
    <linearGradient id="panok-great-cabin" x1="0" y1="0" x2="0" y2="1">
      <stop offset="0" stop-color="#d6b583"/>
      <stop offset="1" stop-color="#ad824f"/>
    </linearGradient>
  </defs>
  <path d="M18 51c0-12.2 19-32.2 50.8-42.6L104 0l35.2 8.4C170 18.8 188 38.8 188 51s-18 32.2-48.8 42.6L104 102 68.8 93.6C37 83.2 18 63.2 18 51z" fill="url(#panok-great-hull)" stroke="#3d2512" stroke-width="3.2"/>
  <path d="M46 51c0-8.8 13.2-19.4 42-25.2l13-2.6 13 2.6c28.8 5.8 42 16.4 42 25.2s-13.2 19.4-42 25.2l-13 2.6-13-2.6c-28.8-5.8-42-16.4-42-25.2z" fill="url(#panok-great-deck)" stroke="#995f2a" stroke-width="1.6"/>
  <g stroke="#995f2a" stroke-width="1.3" opacity="0.5">
    <line x1="68" y1="26" x2="68" y2="78"/>
    <line x1="92" y1="24" x2="92" y2="80"/>
    <line x1="116" y1="24" x2="116" y2="80"/>
    <line x1="140" y1="24" x2="140" y2="80"/>
    <line x1="164" y1="26" x2="164" y2="78"/>
  </g>
  <!-- triple pagoda cabins -->
  <g>
    <rect x="58" y="30" width="36" height="38" rx="12" fill="url(#panok-great-cabin)" stroke="#6f4a27" stroke-width="2"/>
    <rect x="98" y="28" width="36" height="42" rx="14" fill="url(#panok-great-cabin)" stroke="#6f4a27" stroke-width="2"/>
    <rect x="138" y="30" width="36" height="38" rx="12" fill="url(#panok-great-cabin)" stroke="#6f4a27" stroke-width="2"/>
    <g fill="#f6ecd7" stroke="#6c5941" stroke-width="1.3">
      <rect x="66" y="34" width="12" height="18" rx="3"/>
      <rect x="110" y="34" width="12" height="20" rx="3.5"/>
      <rect x="154" y="34" width="12" height="18" rx="3"/>
    </g>
  </g>
  <!-- command tower -->
  <rect x="104" y="20" width="12" height="46" rx="5" fill="#273441" stroke="#101821" stroke-width="1.8"/>
  <circle cx="110" cy="30" r="4" fill="#dfe7f0"/>
  <!-- shielded sides -->
  <g fill="#854f22" opacity="0.85">
    <rect x="50" y="34" width="9" height="30" rx="4"/>
    <rect x="170" y="34" width="9" height="30" rx="4"/>
    <rect x="60" y="36" width="9" height="32" rx="4"/>
    <rect x="160" y="36" width="9" height="32" rx="4"/>
  </g>
  <!-- cannon ports -->
  <g fill="#d0d7e0" stroke="#1e272f" stroke-width="1.6">
    <circle cx="64" cy="38" r="3.6"/>
    <circle cx="80" cy="34" r="3.6"/>
    <circle cx="96" cy="32" r="3.6"/>
    <circle cx="124" cy="32" r="3.6"/>
    <circle cx="140" cy="34" r="3.6"/>
    <circle cx="156" cy="38" r="3.6"/>
    <circle cx="64" cy="60" r="3.6"/>
    <circle cx="80" cy="64" r="3.6"/>
    <circle cx="96" cy="68" r="3.6"/>
    <circle cx="124" cy="68" r="3.6"/>
    <circle cx="140" cy="64" r="3.6"/>
    <circle cx="156" cy="60" r="3.6"/>
  </g>
  <!-- multi masts -->
  <rect x="82" y="12" width="4" height="22" rx="1.4" fill="#6f4524"/>
  <rect x="136" y="10" width="4" height="24" rx="1.4" fill="#6f4524"/>
  <path d="M86 14l22 7-22 7z" fill="#114d9a" stroke="#17325a" stroke-width="1.3"/>
  <path d="M140 12l-24 8 24 8z" fill="#be2f38" stroke="#5a2020" stroke-width="1.3"/>
  <!-- oars -->
  <g fill="#d5a86a" stroke="#6a3d19" stroke-width="2.4">
    <path d="M56 26l-20 -12 4 -6 28 10z"/>
    <path d="M76 24l-20 -12 4 -6 28 10z"/>
    <path d="M128 24l20 -12-4 -6-28 10z"/>
    <path d="M148 26l20 -12-4 -6-28 10z"/>
    <path d="M56 58l-20 12 4 6 28-10z"/>
    <path d="M76 60l-20 12 4 6 28-10z"/>
    <path d="M128 60l20 12-4 6-28-10z"/>
    <path d="M148 58l20 12-4 6-28-10z"/>
  </g>
</svg>
