<svg xmlns="http://www.w3.org/2000/svg" viewBox="0 0 188 58">
  <defs>
    <linearGradient id="bowHull" x1="0" y1="0" x2="0" y2="1">
      <stop offset="0" stop-color="#a56f35"/>
      <stop offset="1" stop-color="#5d341a"/>
    </linearGradient>
    <linearGradient id="bowDeck" x1="0" y1="0" x2="1" y2="0">
      <stop offset="0" stop-color="#d5b07d"/>
      <stop offset="1" stop-color="#af8452"/>
    </linearGradient>
  </defs>
  <path d="M20 29c0-8.2 13.4-21.4 34-27.6l40-11.4 40 11.4c20.6 6.2 34 19.4 34 27.6s-13.4 21.4-34 27.6l-40 11.4-40-11.4C33.4 50.4 20 37.2 20 29z" fill="url(#bowHull)" stroke="#2d1a0f" stroke-width="3"/>
  <path d="M42 29c0-5.8 9.2-12.8 30-16.4l22-3.4 22 3.4c20.8 3.6 30 10.6 30 16.4s-9.2 12.8-30 16.4l-22 3.4-22-3.4c-20.8-3.6-30-10.6-30-16.4z" fill="url(#bowDeck)"/>
  <path d="M138 29c6.6 1.6 11.4 4.4 14.4 9.4-4.8 4-10 4.8-16.4 3.2z" fill="#d2ac42" stroke="#6a4316" stroke-width="1.5"/>
  <g stroke="#61381b" stroke-width="1.6" opacity="0.45">
    <path d="M52 18l36 22"/>
    <path d="M52 40l36-22"/>
    <path d="M72 16l0 26"/>
  </g>
</svg>
