<svg xmlns="http://www.w3.org/2000/svg" viewBox="0 0 200 48">
  <defs>
    <linearGradient id="pkmHull" x1="0" y1="0" x2="0" y2="1">
      <stop offset="0" stop-color="#596a7a"/>
      <stop offset="1" stop-color="#242f3a"/>
    </linearGradient>
    <linearGradient id="pkmDeck" x1="0" y1="0" x2="1" y2="0">
      <stop offset="0" stop-color="#ccc09e"/>
      <stop offset="1" stop-color="#aa9672"/>
    </linearGradient>
  </defs>
  <path d="M20 24c0-6.6 13-16.4 32-21.6L100-10l48 11.2c19 5.2 32 15 32 21.6s-13 16.4-32 21.6L100 66.4 52 45.6C33 40.4 20 30.6 20 24z" fill="url(#pkmHull)" stroke="#182028" stroke-width="3"/>
  <path d="M44 24c0-4 8.6-8.4 26-10.8l24-2 24 2c17.4 2.4 26 6.8 26 10.8s-8.6 8.4-26 10.8l-24 2-24-2c-17.4-2.4-26-6.8-26-10.8z" fill="url(#pkmDeck)"/>
  <g transform="translate(100 24)">
    <rect x="-24" y="-6" width="48" height="12" rx="4" fill="#313b45" stroke="#11171c" stroke-width="1.2"/>
    <rect x="-6" y="-11" width="12" height="8" rx="2.5" fill="#232b32" stroke="#0d1114" stroke-width="0.9"/>
  </g>
</svg>
