<svg xmlns="http://www.w3.org/2000/svg" viewBox="0 0 180 60">
  <defs>
    <linearGradient id="gwang-hull" x1="0" x2="0" y1="0" y2="1">
      <stop offset="0" stop-color="#22364c"/>
      <stop offset="1" stop-color="#101d2a"/>
    </linearGradient>
    <linearGradient id="gwang-deck" x1="0" x2="1" y1="0" y2="0">
      <stop offset="0" stop-color="#5f7590"/>
      <stop offset="1" stop-color="#43566e"/>
    </linearGradient>
  </defs>
  <path d="M18 30c0-8.8 14.6-24 38-30l34-8 34 8c23.4 6 38 21.2 38 30s-14.6 24-38 30l-34 8-34-8c-23.4-6-38-21.2-38-30z" fill="url(#gwang-hull)" stroke="#0a111a" stroke-width="2"/>
  <path d="M44 30c0-6.4 10.2-14.8 40-18.4l2-0.2 2 0.2c29.8 3.6 40 12 40 18.4s-10.2 14.8-40 18.4l-2 0.2-2-0.2c-29.8-3.6-40-12-40-18.4z" fill="url(#gwang-deck)"/>
  <rect x="74" y="10" width="32" height="40" rx="10" fill="#233546"/>
  <rect x="60" y="18" width="10" height="24" rx="4" fill="#1a2835"/>
  <rect x="110" y="18" width="10" height="24" rx="4" fill="#1a2835"/>
  <circle cx="54" cy="26" r="4" fill="#d2deec"/>
  <circle cx="54" cy="34" r="4" fill="#d2deec"/>
  <circle cx="126" cy="26" r="4" fill="#d2deec"/>
  <circle cx="126" cy="34" r="4" fill="#d2deec"/>
  <path d="M90 8l-4-10h8z" fill="#748ba7"/>
</svg>
