<svg xmlns="http://www.w3.org/2000/svg" viewBox="0 0 220 68">
  <defs>
    <linearGradient id="dokdoHull" x1="0" y1="0" x2="0" y2="1">
      <stop offset="0" stop-color="#566779"/>
      <stop offset="1" stop-color="#242f38"/>
    </linearGradient>
    <linearGradient id="dokdoDeck" x1="0" y1="0" x2="1" y2="0">
      <stop offset="0" stop-color="#9ca7b4"/>
      <stop offset="1" stop-color="#707d8a"/>
    </linearGradient>
  </defs>
  <path d="M18 34c0-8.8 15-23.2 39-30.6L110-10l55 11.4c24 7.4 39 21.8 39 30.6s-15 23.2-39 30.6L110 72.6 57 64C33 56.2 18 42.8 18 34z" fill="url(#dokdoHull)" stroke="#141d24" stroke-width="3"/>
  <path d="M42 34c0-6.8 12-15 36-20.2l30-4.2 30 4.2c24 5.2 36 13.4 36 20.2s-12 15-36 20.2l-30 4.2-30-4.2c-24-5.2-36-13.4-36-20.2z" fill="url(#dokdoDeck)"/>
  <g stroke="#d4dce5" stroke-width="2" opacity="0.55">
    <line x1="60" y1="34" x2="160" y2="34"/>
    <line x1="72" y1="24" x2="148" y2="44"/>
    <line x1="72" y1="44" x2="148" y2="24"/>
  </g>
  <rect x="128" y="20" width="16" height="14" rx="2.5" fill="#2d3843" stroke="#11181d" stroke-width="1.2"/>
</svg>
