<svg xmlns="http://www.w3.org/2000/svg" viewBox="0 0 160 80">
  <defs>
    <linearGradient id="raft-log" x1="0" y1="0" x2="0" y2="1">
      <stop offset="0" stop-color="#c58a4c"/>
      <stop offset="0.5" stop-color="#a46a38"/>
      <stop offset="1" stop-color="#8b5429"/>
    </linearGradient>
    <linearGradient id="raft-strap" x1="0" y1="0" x2="1" y2="0">
      <stop offset="0" stop-color="#3a2a1b"/>
      <stop offset="1" stop-color="#23170f"/>
    </linearGradient>
  </defs>
  <!-- lashed pine logs -->
  <rect x="12" y="18" width="136" height="44" rx="14" fill="url(#raft-log)" stroke="#3f2917" stroke-width="4"/>
  <!-- individual logs -->
  <g fill="none" stroke="#5a3b21" stroke-width="2.4" opacity="0.55">
    <line x1="28" y1="20" x2="28" y2="62"/>
    <line x1="44" y1="20" x2="44" y2="62"/>
    <line x1="60" y1="20" x2="60" y2="62"/>
    <line x1="76" y1="20" x2="76" y2="62"/>
    <line x1="92" y1="20" x2="92" y2="62"/>
    <line x1="108" y1="20" x2="108" y2="62"/>
    <line x1="124" y1="20" x2="124" y2="62"/>
    <line x1="140" y1="20" x2="140" y2="62"/>
  </g>
  <!-- lashings -->
  <g fill="url(#raft-strap)">
    <rect x="18" y="18" width="12" height="44" rx="4" opacity="0.92"/>
    <rect x="130" y="18" width="12" height="44" rx="4" opacity="0.92"/>
    <rect x="74" y="16" width="12" height="48" rx="4" opacity="0.7"/>
  </g>
  <!-- cargo bundle -->
  <g transform="translate(98 28)">
    <rect x="-8" y="-6" width="32" height="28" rx="6" fill="#68492a" stroke="#2f1d10" stroke-width="2"/>
    <path d="M-6 8h28" stroke="#22130a" stroke-width="3"/>
    <path d="M8 -6v28" stroke="#22130a" stroke-width="3"/>
  </g>
  <!-- paddles -->
  <g fill="#d5aa67" stroke="#623b1a" stroke-width="2">
    <path d="M34 10l-4 4 20 16 4-4z"/>
    <path d="M126 10l4 4-20 16-4-4z"/>
  </g>
</svg>
