<svg xmlns="http://www.w3.org/2000/svg" viewBox="0 0 196 60">
  <defs>
    <linearGradient id="goryeoRowHull" x1="0" y1="0" x2="0" y2="1">
      <stop offset="0" stop-color="#9c6b36"/>
      <stop offset="1" stop-color="#543019"/>
    </linearGradient>
    <linearGradient id="goryeoRowDeck" x1="0" y1="0" x2="1" y2="0">
      <stop offset="0" stop-color="#cfac76"/>
      <stop offset="1" stop-color="#a77b4c"/>
    </linearGradient>
  </defs>
  <path d="M20 30c0-8.6 14.2-22.4 36-28.8L98-10l42 11.2c21.8 6.4 36 20.2 36 28.8s-14.2 22.4-36 28.8L98 68.8 56 57.6C34.2 52.4 20 38.6 20 30z" fill="url(#goryeoRowHull)" stroke="#2b170c" stroke-width="3"/>
  <path d="M42 30c0-5.8 9.8-12.6 30-16.2l24-3.6 24 3.6c20.2 3.6 30 10.4 30 16.2s-9.8 12.6-30 16.2l-24 3.6-24-3.6c-20.2-3.6-30-10.4-30-16.2z" fill="url(#goryeoRowDeck)"/>
  <rect x="84" y="18" width="28" height="26" rx="8" fill="#313f4a" stroke="#10171c" stroke-width="1.6"/>
  <g fill="#be3f35" stroke="#411414" stroke-width="1.3">
    <circle cx="64" cy="30" r="4.6"/>
    <circle cx="132" cy="30" r="4.6"/>
  </g>
</svg>
