<svg xmlns="http://www.w3.org/2000/svg" viewBox="0 0 196 58">
  <defs>
    <linearGradient id="sugunHull" x1="0" y1="0" x2="0" y2="1">
      <stop offset="0" stop-color="#7285a1"/>
      <stop offset="1" stop-color="#334154"/>
    </linearGradient>
    <linearGradient id="sugunDeck" x1="0" y1="0" x2="1" y2="0">
      <stop offset="0" stop-color="#d5b382"/>
      <stop offset="1" stop-color="#af8855"/>
    </linearGradient>
  </defs>
  <path d="M20 29c0-8.4 14-21.8 36-28L102-10l46 11.2c22 6.2 36 19.6 36 28s-14 21.8-36 28L102 68.4 56 57C34 50.8 20 37.4 20 29z" fill="url(#sugunHull)" stroke="#1d2733" stroke-width="3"/>
  <path d="M42 29c0-5.8 9.6-12.6 30-16.4l22-3.6 22 3.6c20.4 3.8 30 10.6 30 16.4s-9.6 12.6-30 16.4l-22 3.6-22-3.6c-20.4-3.8-30-10.6-30-16.4z" fill="url(#sugunDeck)"/>
  <g transform="translate(96 28)">
    <rect x="-30" y="-12" width="60" height="24" rx="10" fill="#c04636" stroke="#431816" stroke-width="2"/>
    <rect x="-24" y="-18" width="48" height="12" rx="6" fill="#f1e2c8" stroke="#887453" stroke-width="1.6"/>
    <g fill="#e6f0f8" stroke="#3b4a5c" stroke-width="1.2">
      <rect x="-16" y="-4" width="12" height="12" rx="3"/>
      <rect x="4" y="-4" width="12" height="12" rx="3"/>
    </g>
  </g>
</svg>
