<svg xmlns="http://www.w3.org/2000/svg" viewBox="0 0 200 52">
  <defs>
    <linearGradient id="kdxHull" x1="0" y1="0" x2="0" y2="1">
      <stop offset="0" stop-color="#5d7286"/>
      <stop offset="1" stop-color="#27323f"/>
    </linearGradient>
    <linearGradient id="kdxDeck" x1="0" y1="0" x2="1" y2="0">
      <stop offset="0" stop-color="#d1c1a1"/>
      <stop offset="1" stop-color="#af9c77"/>
    </linearGradient>
  </defs>
  <path d="M20 26c0-7.6 13.6-19.8 32-25.2L100-10l48 11.4c18.4 5.4 32 17.6 32 25.2s-13.6 19.8-32 25.2L100 66.6 52 51.2C33.6 45.8 20 33.6 20 26z" fill="url(#kdxHull)" stroke="#1a2129" stroke-width="3"/>
  <path d="M42 26c0-4.6 8.8-9.8 28-12.6l25-2.2 25 2.2c19.2 2.8 28 8 28 12.6s-8.8 9.8-28 12.6l-25 2.2-25-2.2c-19.2-2.8-28-8-28-12.6z" fill="url(#kdxDeck)"/>
  <g transform="translate(100 26)">
    <rect x="-26" y="-8" width="52" height="14" rx="5" fill="#3b4956" stroke="#11181e" stroke-width="1.4"/>
    <rect x="-12" y="-14" width="24" height="10" rx="3" fill="#252e36" stroke="#0d1114" stroke-width="1.1"/>
  </g>
</svg>
