<svg xmlns="http://www.w3.org/2000/svg" viewBox="0 0 180 58">
  <defs>
    <linearGradient id="ballistaRaftHull" x1="0" y1="0" x2="0" y2="1">
      <stop offset="0" stop-color="#a5753f"/>
      <stop offset="1" stop-color="#643718"/>
    </linearGradient>
    <linearGradient id="ballistaRaftDeck" x1="0" y1="0" x2="1" y2="0">
      <stop offset="0" stop-color="#d9b37f"/>
      <stop offset="1" stop-color="#b38553"/>
    </linearGradient>
  </defs>
  <path d="M20 29c0-8.4 13.6-21.8 34-28.2l38-10.8 38 10.8c20.4 6.4 34 19.8 34 28.2s-13.6 21.8-34 28.2l-38 10.8-38-10.8C33.6 50.8 20 37.4 20 29z" fill="url(#ballistaRaftHull)" stroke="#2d180c" stroke-width="3"/>
  <path d="M40 29c0-5.8 9.6-12.8 30-16.8l20-3.6 20 3.6c20.4 4 30 11 30 16.8s-9.6 12.8-30 16.8l-20 3.6-20-3.6c-20.4-4-30-11-30-16.8z" fill="url(#ballistaRaftDeck)"/>
  <g transform="translate(96 27)">
    <rect x="-24" y="-10" width="48" height="28" rx="10" fill="#d2b07a" stroke="#6d471f" stroke-width="2"/>
    <rect x="-18" y="-16" width="36" height="12" rx="6" fill="#8c6232" stroke="#3d2413" stroke-width="1.6"/>
    <path d="M-26 -4l-24 -8 4 10 20 2z" fill="#a07036" stroke="#3d2413" stroke-width="1.6"/>
    <path d="M26 -4l24 -8-4 10-20 2z" fill="#a07036" stroke="#3d2413" stroke-width="1.6"/>
    <path d="M-12 4h24" stroke="#3d2413" stroke-width="3"/>
  </g>
</svg>
