<svg xmlns="http://www.w3.org/2000/svg" viewBox="0 0 188 60">
  <defs>
    <linearGradient id="repeatHull" x1="0" y1="0" x2="0" y2="1">
      <stop offset="0" stop-color="#9f6d37"/>
      <stop offset="1" stop-color="#583417"/>
    </linearGradient>
    <linearGradient id="repeatDeck" x1="0" y1="0" x2="1" y2="0">
      <stop offset="0" stop-color="#d9b27e"/>
      <stop offset="1" stop-color="#b08250"/>
    </linearGradient>
  </defs>
  <path d="M20 30c0-8.6 13.8-22.6 34-29l38-10 38 10c20.2 6.4 34 20.4 34 29s-13.8 22.6-34 29l-38 10-38-10C33.8 52.6 20 38.6 20 30z" fill="url(#repeatHull)" stroke="#2c180c" stroke-width="3"/>
  <path d="M40 30c0-6 9.6-13 30-16.8l22-3.8 22 3.8c20.4 3.8 30 10.8 30 16.8s-9.6 13-30 16.8l-22 3.8-22-3.8c-20.4-3.8-30-10.8-30-16.8z" fill="url(#repeatDeck)"/>
  <g transform="translate(100 28)">
    <rect x="-32" y="-12" width="64" height="32" rx="12" fill="#dabc88" stroke="#6d471f" stroke-width="2"/>
    <rect x="-24" y="-18" width="48" height="12" rx="6" fill="#8a6031" stroke="#3d2413" stroke-width="1.6"/>
    <g stroke="#3d2413" stroke-width="2.2">
      <line x1="-24" y1="-10" x2="-40" y2="-14"/>
      <line x1="0" y1="-10" x2="-16" y2="-14"/>
      <line x1="24" y1="-10" x2="40" y2="-14"/>
      <line x1="-24" y1="20" x2="-40" y2="24"/>
      <line x1="0" y1="20" x2="-16" y2="24"/>
      <line x1="24" y1="20" x2="40" y2="24"/>
    </g>
  </g>
  <g fill="#be3f35" stroke="#411415" stroke-width="1.3">
    <circle cx="62" cy="30" r="4.4"/>
    <circle cx="136" cy="30" r="4.4"/>
  </g>
</svg>
