<svg xmlns="http://www.w3.org/2000/svg" viewBox="0 0 188 76">
  <defs>
    <linearGradient id="repeat-hull" x1="0" y1="0" x2="0" y2="1">
      <stop offset="0" stop-color="#b67b3c"/>
      <stop offset="1" stop-color="#714419"/>
    </linearGradient>
    <linearGradient id="repeat-deck" x1="0" y1="0" x2="1" y2="0">
      <stop offset="0" stop-color="#e6c896"/>
      <stop offset="1" stop-color="#c39a63"/>
    </linearGradient>
    <linearGradient id="hwacha-frame" x1="0" y1="0" x2="1" y2="0">
      <stop offset="0" stop-color="#dcb584"/>
      <stop offset="1" stop-color="#a97d49"/>
    </linearGradient>
  </defs>
  <path d="M20 38c0-9.6 15.6-26 40-33.6l36-10.4 36 10.4c24.4 7.6 40 24 40 33.6s-15.6 26-40 33.6l-36 10.4-36-10.4C35.6 64 20 47.6 20 38z" fill="url(#repeat-hull)" stroke="#3c2111" stroke-width="3"/>
  <path d="M44 38c0-7 11.4-15.8 38-20.2l14-2.4 14 2.4c26.6 4.4 38 13.2 38 20.2s-11.4 15.8-38 20.2l-14 2.4-14-2.4c-26.6-4.4-38-13.2-38-20.2z" fill="url(#repeat-deck)" stroke="#8d5b2c" stroke-width="1.6"/>
  <g stroke="#8d5b2c" stroke-width="1.2" opacity="0.55">
    <line x1="62" y1="18" x2="62" y2="58"/>
    <line x1="80" y1="16" x2="80" y2="60"/>
    <line x1="98" y1="16" x2="98" y2="60"/>
    <line x1="116" y1="16" x2="116" y2="60"/>
    <line x1="134" y1="18" x2="134" y2="58"/>
  </g>
  <!-- hwacha deckhouse -->
  <g transform="translate(100 26)">
    <rect x="-24" y="-8" width="48" height="32" rx="12" fill="url(#hwacha-frame)" stroke="#6d441d" stroke-width="2"/>
    <rect x="-18" y="-14" width="36" height="10" rx="4" fill="#b58b56" stroke="#6d441d" stroke-width="2"/>
    <path d="M-24 -4l-28 -8 4 10 24 0z" fill="#9d6a32" stroke="#3c2312" stroke-width="2"/>
    <path d="M24 -4l28 -8-4 10-24 0z" fill="#9d6a32" stroke="#3c2312" stroke-width="2"/>
    <g stroke="#3c2312" stroke-width="2">
      <line x1="-12" y1="6" x2="12" y2="6"/>
      <line x1="-12" y1="12" x2="12" y2="12"/>
    </g>
    <g stroke="#5d3420" stroke-width="1.6">
      <line x1="-16" y1="-6" x2="-24" y2="-8"/>
      <line x1="0" y1="-6" x2="-8" y2="-8"/>
      <line x1="16" y1="-6" x2="24" y2="-8"/>
      <line x1="-16" y1="20" x2="-24" y2="24"/>
      <line x1="0" y1="20" x2="-8" y2="24"/>
      <line x1="16" y1="20" x2="24" y2="24"/>
    </g>
  </g>
  <!-- shields -->
  <g fill="#d4a461" stroke="#6a3d19" stroke-width="2.2">
    <path d="M56 26l-18 -12 4 -6 26 12z"/>
    <path d="M72 24l-18 -12 4 -6 26 12z"/>
    <path d="M128 24l18 -12-4 -6-26 12z"/>
    <path d="M144 26l18 -12-4 -6-26 12z"/>
    <path d="M56 50l-18 12 4 6 26-12z"/>
    <path d="M72 52l-18 12 4 6 26-12z"/>
    <path d="M128 52l18 12-4 6-26-12z"/>
    <path d="M144 50l18 12-4 6-26-12z"/>
  </g>

  <!-- oars -->
  <g fill="#d4a461" stroke="#6a3d19" stroke-width="2.2">
    <path d="M56 50l-18 12 4 6 26-12z"/>
    <path d="M72 52l-18 12 4 6 26-12z"/>
    <path d="M128 52l18 12-4 6-26-12z"/>
    <path d="M144 50l18 12-4 6-26-12z"/>
  </g>
</svg>
