<svg xmlns="http://www.w3.org/2000/svg" viewBox="0 0 188 58">
  <defs>
    <linearGradient id="courierHull" x1="0" y1="0" x2="0" y2="1">
      <stop offset="0" stop-color="#b9863f"/>
      <stop offset="1" stop-color="#70441d"/>
    </linearGradient>
    <linearGradient id="courierDeck" x1="0" y1="0" x2="1" y2="0">
      <stop offset="0" stop-color="#f0d59f"/>
      <stop offset="1" stop-color="#cda26c"/>
    </linearGradient>
  </defs>
  <path d="M18 29c0-8.4 13.4-21.8 34-28.2l42-11.8 42 11.8c20.6 6.4 34 19.8 34 28.2s-13.4 21.8-34 28.2l-42 11.8-42-11.8C31.4 50.8 18 37.4 18 29z" fill="url(#courierHull)" stroke="#331d0e" stroke-width="3"/>
  <path d="M42 29c0-5.8 9.6-12.8 30-16.8l18-3.2 18 3.2c20.4 4 30 11 30 16.8s-9.6 12.8-30 16.8l-18 3.2-18-3.2c-20.4-4-30-11-30-16.8z" fill="url(#courierDeck)"/>
  <g transform="translate(96 28)">
    <rect x="-34" y="-14" width="68" height="24" rx="10" fill="#b03c30" stroke="#4a1f16" stroke-width="1.8"/>
    <rect x="-28" y="-20" width="56" height="14" rx="7" fill="#f4ebce" stroke="#8c7c5d" stroke-width="1.4"/>
    <g fill="#d5a93f" stroke="#6b4514" stroke-width="1.2">
      <circle cx="-12" cy="0" r="4.6"/>
      <circle cx="12" cy="0" r="4.6"/>
    </g>
  </g>
  <rect x="90" y="6" width="4" height="16" rx="1.4" fill="#6f4524"/>
  <path d="M94 8l20 6-20 6z" fill="#d3b042" stroke="#6b4514" stroke-width="1.2"/>
  <rect x="90" y="44" width="4" height="12" rx="1.4" fill="#6f4524"/>
  <path d="M94 48l18 6-18 6z" fill="#b72f3d" stroke="#551620" stroke-width="1.2"/>
</svg>
