<svg xmlns="http://www.w3.org/2000/svg" viewBox="0 0 200 48">
  <defs>
    <linearGradient id="coastalHull" x1="0" y1="0" x2="0" y2="1">
      <stop offset="0" stop-color="#566778"/>
      <stop offset="1" stop-color="#262f39"/>
    </linearGradient>
    <linearGradient id="coastalDeck" x1="0" y1="0" x2="1" y2="0">
      <stop offset="0" stop-color="#cec19f"/>
      <stop offset="1" stop-color="#ac9975"/>
    </linearGradient>
  </defs>
  <path d="M20 24c0-6.8 13.2-17.2 30-22.2L100-10l50 11c16.8 5 30 15.4 30 22.2s-13.2 17.2-30 22.2L100 67.4 50 46.2C33.2 41.2 20 30.8 20 24z" fill="url(#coastalHull)" stroke="#161d24" stroke-width="3"/>
  <path d="M42 24c0-4 8.4-8.2 26-10.6l26-2 26 2c17.6 2.4 26 6.6 26 10.6s-8.4 8.2-26 10.6l-26 2-26-2c-17.6-2.4-26-6.6-26-10.6z" fill="url(#coastalDeck)"/>
  <g transform="translate(100 24)">
    <rect x="-24" y="-6" width="48" height="12" rx="4" fill="#37414c" stroke="#10161b" stroke-width="1.2"/>
    <rect x="-6" y="-10" width="12" height="8" rx="2.5" fill="#232a32" stroke="#0b1013" stroke-width="0.9"/>
  </g>
</svg>
