<svg xmlns="http://www.w3.org/2000/svg" viewBox="0 0 180 60">
  <defs>
    <linearGradient id="ferryHull" x1="0" y1="0" x2="0" y2="1">
      <stop offset="0" stop-color="#a06e36"/>
      <stop offset="1" stop-color="#623a1d"/>
    </linearGradient>
    <linearGradient id="ferryDeck" x1="0" y1="0" x2="1" y2="0">
      <stop offset="0" stop-color="#d9b67f"/>
      <stop offset="1" stop-color="#b48652"/>
    </linearGradient>
    <linearGradient id="ferryCanopy" x1="0" y1="0" x2="0.9" y2="1">
      <stop offset="0" stop-color="#f0e8d4"/>
      <stop offset="1" stop-color="#cbc0a2"/>
    </linearGradient>
  </defs>
  <path d="M18 30c0-8.8 14.2-23.6 34-30l38-10 38 10c19.8 6.4 34 21.2 34 30s-14.2 23.6-34 30l-38 10-38-10c-19.8-6.4-34-21.2-34-30z" fill="url(#ferryHull)" stroke="#2f1d10" stroke-width="3"/>
  <path d="M38 30c0-6.2 9.8-13.6 30-17.4l22-3.8 22 3.8c20.2 3.8 30 11.2 30 17.4s-9.8 13.6-30 17.4l-22 3.8-22-3.8c-20.2-3.8-30-11.2-30-17.4z" fill="url(#ferryDeck)"/>
  <g transform="translate(90 30)">
    <rect x="-44" y="-14" width="88" height="22" rx="10" fill="#b24532" stroke="#4a1f16" stroke-width="2"/>
    <rect x="-36" y="-20" width="72" height="16" rx="8" fill="url(#ferryCanopy)" stroke="#867c66" stroke-width="1.6"/>
    <g fill="#e8f0f2" stroke="#49545f" stroke-width="1">
      <rect x="-30" y="-8" width="12" height="12" rx="2"/>
      <rect x="-12" y="-8" width="12" height="12" rx="2"/>
      <rect x="6" y="-8" width="12" height="12" rx="2"/>
      <rect x="24" y="-8" width="12" height="12" rx="2"/>
    </g>
  </g>
  <path d="M148 30c6.8 1.6 11.6 4.8 14.4 10-4.8 4.4-10 5.2-16.6 3.6z" fill="#d2b043" stroke="#6b4514" stroke-width="1.6"/>
</svg>
