<svg xmlns="http://www.w3.org/2000/svg" viewBox="0 0 220 70">
  <defs>
    <linearGradient id="turtleVarHull" x1="0" y1="0" x2="0" y2="1">
      <stop offset="0" stop-color="#5e3d22"/>
      <stop offset="1" stop-color="#301a0e"/>
    </linearGradient>
    <linearGradient id="turtleVarShell" x1="0" y1="0" x2="1" y2="0">
      <stop offset="0" stop-color="#465b67"/>
      <stop offset="1" stop-color="#25323b"/>
    </linearGradient>
  </defs>
  <path d="M18 35c0-9.8 17-26.8 44-35.2L110-10l48 11.2c27 8.4 44 25.4 44 35.2s-17 26.8-44 35.2l-48 11.2-48-11.2C35 61.8 18 44.8 18 35z" fill="url(#turtleVarHull)" stroke="#1b0f08" stroke-width="3"/>
  <path d="M44 35c0-7.6 11-17 38-22.2l16-2.8 16 2.8c27 5.2 38 14.6 38 22.2s-11 17-38 22.2l-16 2.8-16-2.8c-27-5.2-38-14.6-38-22.2z" fill="url(#turtleVarShell)"/>
  <g stroke="#111a21" stroke-width="1.8" opacity="0.7">
    <path d="M60 24l100 22"/>
    <path d="M60 46l100-22"/>
    <path d="M82 18l0 30"/>
    <path d="M106 16l0 34"/>
    <path d="M130 18l0 30"/>
  </g>
  <g fill="#ccd5df" stroke="#1c252c" stroke-width="1.4">
    <circle cx="70" cy="30" r="3.6"/>
    <circle cx="86" cy="26" r="3.6"/>
    <circle cx="102" cy="24" r="3.6"/>
    <circle cx="118" cy="26" r="3.6"/>
    <circle cx="134" cy="30" r="3.6"/>
    <circle cx="70" cy="40" r="3.6"/>
    <circle cx="86" cy="44" r="3.6"/>
    <circle cx="102" cy="46" r="3.6"/>
    <circle cx="118" cy="44" r="3.6"/>
    <circle cx="134" cy="40" r="3.6"/>
  </g>
  <path d="M170 35c11.4 2.8 18.4 8.2 21.2 15.2-7.2 5.6-14.6 6.6-23.2 3.8z" fill="#c58b39" stroke="#4f3116" stroke-width="2"/>
  <circle cx="182" cy="37" r="3.2" fill="#1f140a"/>
</svg>
