<svg xmlns="http://www.w3.org/2000/svg" viewBox="0 0 200 54">
  <defs>
    <linearGradient id="ffHull" x1="0" y1="0" x2="0" y2="1">
      <stop offset="0" stop-color="#657a90"/>
      <stop offset="1" stop-color="#2c3847"/>
    </linearGradient>
    <linearGradient id="ffDeck" x1="0" y1="0" x2="1" y2="0">
      <stop offset="0" stop-color="#d2c3a4"/>
      <stop offset="1" stop-color="#b19e7b"/>
    </linearGradient>
  </defs>
  <path d="M20 27c0-7.8 14.4-20.6 36-26.4L102-10l42 10.6c21.6 5.8 36 18.6 36 26.4s-14.4 20.6-36 26.4L102 66.4 56 53.4C34.4 47.6 20 34.8 20 27z" fill="url(#ffHull)" stroke="#1b242c" stroke-width="3"/>
  <path d="M44 27c0-5 9.8-10.8 32-13.8l24-2.6 24 2.6c22.2 3 32 8.8 32 13.8s-9.8 10.8-32 13.8l-24 2.6-24-2.6c-22.2-3-32-8.8-32-13.8z" fill="url(#ffDeck)"/>
  <g transform="translate(100 27)">
    <rect x="-30" y="-8" width="60" height="16" rx="6" fill="#3d4956" stroke="#12191f" stroke-width="1.6"/>
    <rect x="-12" y="-14" width="24" height="10" rx="3" fill="#27313a" stroke="#0e1418" stroke-width="1.2"/>
  </g>
</svg>
