<svg xmlns="http://www.w3.org/2000/svg" viewBox="0 0 200 62">
  <defs>
    <linearGradient id="seonjangHull" x1="0" y1="0" x2="0" y2="1">
      <stop offset="0" stop-color="#b07940"/>
      <stop offset="1" stop-color="#6a3c1e"/>
    </linearGradient>
    <linearGradient id="seonjangDeck" x1="0" y1="0" x2="1" y2="0">
      <stop offset="0" stop-color="#debb85"/>
      <stop offset="1" stop-color="#b58855"/>
    </linearGradient>
  </defs>
  <path d="M20 31c0-8.8 14.4-22.8 36-29.8L100-10l44 11.2c21.6 7 36 21 36 29.8s-14.4 22.8-36 29.8L100 72.8 56 60.8C34.4 54.8 20 39.8 20 31z" fill="url(#seonjangHull)" stroke="#2d1a0d" stroke-width="3"/>
  <path d="M42 31c0-5.8 9.4-12.6 30-16.2l24-3.6 24 3.6c20.6 3.6 30 10.4 30 16.2s-9.4 12.6-30 16.2l-24 3.6-24-3.6c-20.6-3.6-30-10.4-30-16.2z" fill="url(#seonjangDeck)"/>
  <g transform="translate(100 30)">
    <rect x="-34" y="-12" width="68" height="28" rx="12" fill="#d1ad76" stroke="#6d471f" stroke-width="2"/>
    <g fill="#f6edd7" stroke="#8b7758" stroke-width="1.4">
      <rect x="-18" y="-6" width="12" height="14" rx="3"/>
      <rect x="6" y="-6" width="12" height="14" rx="3"/>
    </g>
  </g>
  <g fill="#be3f35" stroke="#411414" stroke-width="1.3">
    <circle cx="64" cy="31" r="4.6"/>
    <circle cx="136" cy="31" r="4.6"/>
  </g>
</svg>
